<svg width="103" height="108" viewBox="0 0 103 108" fill="none" xmlns="http://www.w3.org/2000/svg">
<path fill-rule="evenodd" clip-rule="evenodd" d="M77.4987 18.6697L77.4989 18.6796C77.4992 18.6959 77.4994 18.7122 77.4995 18.7285L77.4995 18.75V48.75C77.4995 50.8211 75.8206 52.5 73.7495 52.5C71.6784 52.5 69.9995 50.8211 69.9995 48.75V30.4979C64.3566 34.4235 54.8281 37.5 38.7495 37.5C22.6709 37.5 13.1424 34.4235 7.49951 30.4979V48.6557C7.5023 48.6809 7.50754 48.7222 7.51685 48.778C7.54714 48.9598 7.62019 49.2943 7.7914 49.7346C8.12555 50.5938 8.86855 51.9487 10.565 53.4028C13.9845 56.3338 21.6982 60 38.7495 60C41.6217 60 44.2346 59.8958 46.6101 59.7077C48.6747 59.5442 50.4809 61.0854 50.6443 63.15C50.8078 65.2146 49.2666 67.0209 47.202 67.1843C44.6134 67.3892 41.8023 67.5 38.7495 67.5C22.6709 67.5 13.1424 64.4235 7.49951 60.4979V78.6557C7.5023 78.6809 7.50754 78.7222 7.51685 78.778C7.54714 78.9598 7.62019 79.2943 7.7914 79.7346C8.12555 80.5938 8.86855 81.9487 10.565 83.4028C13.9845 86.3338 21.6982 90 38.7495 90C40.8206 90 42.4995 91.6789 42.4995 93.75C42.4995 95.8211 40.8206 97.5 38.7495 97.5C20.8008 97.5 11.0145 93.6662 5.68404 89.0972C3.00547 86.8013 1.56098 84.4062 0.801369 82.4529C0.425704 81.4869 0.225317 80.6496 0.118894 80.011C0.0656898 79.6918 0.0358758 79.4217 0.0193481 79.2092C0.0110805 79.1029 0.00612378 79.0109 0.00323272 78.9341C0.00178695 78.8956 0.000856876 78.861 0.00028801 78.8303L-0.000313282 78.7872L-0.000447035 78.7678L-0.000478268 78.7587C-0.000485897 78.7543 -0.000488281 78.75 3.74951 78.75H-0.000488281V18.75L-0.000478742 18.7414L-0.000457027 18.7322L-0.000323274 18.7128L0.000278018 18.6697C0.000846884 18.639 0.00177696 18.6044 0.00322273 18.5659C0.00611379 18.4891 0.0110705 18.3971 0.0193382 18.2908C0.0358658 18.0783 0.0656798 17.8082 0.118884 17.489C0.225307 16.8504 0.425694 16.0131 0.801359 15.0471C1.56097 13.0938 3.00546 10.6987 5.68403 8.40279C11.0145 3.83383 20.8008 0 38.7495 0C56.6982 0 66.4845 3.83383 71.815 8.40279C74.4935 10.6987 75.938 13.0938 76.6976 15.0471C77.0733 16.0131 77.2737 16.8504 77.3801 17.489C77.4333 17.8082 77.4631 18.0783 77.4797 18.2908C77.4879 18.3971 77.4929 18.4891 77.4958 18.5659C77.4972 18.6044 77.4982 18.639 77.4987 18.6697ZM7.51231 18.75L7.51684 18.778C7.54713 18.9598 7.62018 19.2943 7.79139 19.7346C8.12554 20.5938 8.86854 21.9487 10.565 23.4028C13.9845 26.3338 21.6982 30 38.7495 30C55.8008 30 63.5145 26.3338 66.934 23.4028C68.6305 21.9487 69.3735 20.5938 69.7076 19.7346C69.8788 19.2943 69.9519 18.9598 69.9822 18.778L69.9867 18.75L69.9822 18.722C69.9519 18.5402 69.8788 18.2057 69.7076 17.7654C69.3735 16.9062 68.6305 15.5513 66.934 14.0972C63.5145 11.1662 55.8008 7.5 38.7495 7.5C21.6982 7.5 13.9845 11.1662 10.565 14.0972C8.86854 15.5513 8.12554 16.9062 7.79139 17.7654C7.62018 18.2057 7.54713 18.5402 7.51684 18.722L7.51231 18.75Z" fill="#EE940C"/>
<path d="M56.1515 77.64C59.2622 67.6015 68.0091 60 78.6999 60C85.0872 60 90.7867 62.7187 95.0001 67.0457V65.9725C95.0001 63.9015 96.679 62.2225 98.7501 62.2225C100.821 62.2225 102.5 63.9015 102.5 65.9725V75.415C102.5 78.3569 100.156 80.7513 97.233 80.8315C97.1543 80.8346 97.0757 80.8353 96.9974 80.8335H88.7251C86.654 80.8335 84.9751 79.1546 84.9751 77.0835C84.9751 75.0125 86.654 73.3335 88.7251 73.3335H90.5841C87.5585 69.6833 83.2884 67.5 78.6999 67.5C71.8077 67.5 65.6136 72.4435 63.3154 79.86C62.7024 81.8382 60.6017 82.945 58.6234 82.332C56.6452 81.7189 55.5384 79.6183 56.1515 77.64Z" fill="#EE940C"/>
<path d="M98.8755 85.1681C100.854 85.7811 101.96 87.8817 101.347 89.86C98.2367 99.8985 89.4898 107.5 78.799 107.5C72.4118 107.5 66.7124 104.781 62.499 100.455V101.528C62.499 103.599 60.8201 105.278 58.749 105.278C56.678 105.278 54.999 103.599 54.999 101.528V92.085C54.999 89.1437 57.3426 86.7497 60.2643 86.6686C60.3438 86.6654 60.4231 86.6647 60.5022 86.6665H68.774C70.8451 86.6665 72.524 88.3454 72.524 90.4165C72.524 92.4876 70.8451 94.1665 68.774 94.1665H66.9148C69.9404 97.8167 74.2105 100 78.799 100C85.6912 100 91.8853 95.0565 94.1835 87.64C94.7966 85.6618 96.8972 84.555 98.8755 85.1681Z" fill="#EE940C"/>
</svg>
