<svg width="108" height="108" viewBox="0 0 108 108" fill="none" xmlns="http://www.w3.org/2000/svg">
<path d="M14.25 7.5C6.65608 7.5 0.5 13.6561 0.5 21.25V71.25C0.5 78.8441 6.65612 85 14.25 85H54.25C56.3211 85 58 83.3211 58 81.25C58 79.1789 56.3211 77.5 54.25 77.5H14.25C10.7982 77.5 8 74.7019 8 71.25V21.25C8 17.7982 10.7982 15 14.25 15H94.25C97.7019 15 100.5 17.7982 100.5 21.25V27.5H24.25C22.1789 27.5 20.5 29.1789 20.5 31.25C20.5 33.3211 22.1789 35 24.25 35H100.5V51.25C100.5 53.3211 102.179 55 104.25 55C106.321 55 108 53.3211 108 51.25V21.25C108 13.6561 101.844 7.5 94.25 7.5H14.25Z" fill="#4F4BC0"/>
<path fill-rule="evenodd" clip-rule="evenodd" d="M65.5 78.75C65.5 67.0139 75.0139 57.5 86.75 57.5C98.4861 57.5 108 67.0139 108 78.75C108 90.4861 98.4861 100 86.75 100C75.0139 100 65.5 90.4861 65.5 78.75ZM86.75 65C79.1561 65 73 71.1561 73 78.75C73 81.0007 73.5408 83.1252 74.4995 85.0005L93.0005 66.4995C91.1252 65.5408 89.0007 65 86.75 65ZM86.75 92.5C84.1336 92.5 81.6879 91.7692 79.6059 90.5007L98.5007 71.6059C99.7692 73.6879 100.5 76.1336 100.5 78.75C100.5 86.3439 94.3439 92.5 86.75 92.5Z" fill="#4F4BC0"/>
</svg>
