<svg width="108" height="108" viewBox="0 0 108 108" fill="none" xmlns="http://www.w3.org/2000/svg">
<path fill-rule="evenodd" clip-rule="evenodd" d="M0.5 54.25C0.5 24.5647 24.5647 0.5 54.25 0.5C83.9351 0.5 108 24.5647 108 54.25C108 76.2867 94.7382 95.2263 75.7603 103.523L75.7397 103.532C69.1585 106.406 61.8904 108 54.25 108C24.5647 108 0.5 83.9351 0.5 54.25ZM100.5 54.25C100.5 71.1096 91.4787 85.8623 78 93.9443V64.2739C78.0045 63.6018 77.8294 62.9269 77.4701 62.3268L57.5059 27.3895C56.8382 26.2211 55.5957 25.5 54.25 25.5C52.9043 25.5 51.6618 26.2211 50.9941 27.3895L31.0281 62.3299C30.6744 62.9219 30.4999 63.5866 30.5 64.2493C30.5 64.2491 30.5 64.2496 30.5 64.2493V93.9444C17.0212 85.8624 8 71.1096 8 54.25C8 28.7068 28.7068 8 54.25 8C79.7929 8 100.5 28.7068 100.5 54.25ZM38 71.2891V97.5646C43.0556 99.4622 48.5316 100.5 54.25 100.5C59.9684 100.5 65.4444 99.4622 70.5 97.5646V71.2891C68.6806 72.2025 66.4766 73 64.25 73C60.9033 73 57.6076 71.1982 55.5922 69.9091C55.1106 69.6011 54.6601 69.2943 54.25 69.0028C53.84 69.2943 53.3895 69.6011 52.9079 69.9091C50.8925 71.1982 47.5968 73 44.25 73C42.0234 73 39.8194 72.2025 38 71.2891ZM39.1334 63.2625C39.295 63.3715 39.462 63.4814 39.6334 63.591C41.5264 64.8018 43.2307 65.5 44.25 65.5C45.2693 65.5 46.9736 64.8019 48.8667 63.591C49.716 63.0477 50.456 62.4981 50.9842 62.0829C51.2463 61.8769 51.4513 61.708 51.5859 61.5948C51.6085 61.5758 51.6291 61.5584 51.6476 61.5427C51.6841 61.5117 51.7124 61.4873 51.7322 61.4702L51.7619 61.4444C53.1817 60.1853 55.3184 60.1853 56.7382 61.4444L56.7679 61.4702C56.7977 61.496 56.847 61.5383 56.9142 61.5948C57.0488 61.708 57.2537 61.8769 57.5158 62.0829C58.0441 62.4981 58.784 63.0477 59.6334 63.591C61.5265 64.8019 63.2308 65.5 64.25 65.5C65.2693 65.5 66.9736 64.8019 68.8667 63.591C69.0381 63.4814 69.205 63.3715 69.3666 63.2625L54.25 36.8084L39.1334 63.2625Z" fill="#F17076"/>
</svg>
