<svg width="113" height="108" viewBox="0 0 113 108" fill="none" xmlns="http://www.w3.org/2000/svg">
<path d="M94.0861 66.2546C95.4724 64.7159 95.3488 62.3447 93.8101 60.9585C92.2714 59.5722 89.9002 59.6958 88.514 61.2345L88.464 61.29C87.0777 62.8287 87.2013 65.1998 88.74 66.5861C90.2787 67.9724 92.6498 67.8488 94.0361 66.3101L94.0861 66.2546Z" fill="#59E1AB"/>
<path d="M38.8101 60.9585C40.3488 62.3447 40.4724 64.7159 39.0861 66.2546L39.0361 66.3101C37.6498 67.8488 35.2787 67.9724 33.74 66.5861C32.2013 65.1998 32.0777 62.8287 33.464 61.29L33.514 61.2345C34.9002 59.6958 37.2714 59.5722 38.8101 60.9585Z" fill="#59E1AB"/>
<path fill-rule="evenodd" clip-rule="evenodd" d="M63.75 50C56.1559 50 50 56.1559 50 63.75C50 71.3441 56.1559 77.5 63.75 77.5C71.3441 77.5 77.5 71.3441 77.5 63.75C77.5 56.1559 71.3441 50 63.75 50ZM57.5 63.75C57.5 60.2981 60.2981 57.5 63.75 57.5C67.2019 57.5 70 60.2981 70 63.75C70 67.2019 67.2019 70 63.75 70C60.2981 70 57.5 67.2019 57.5 63.75Z" fill="#59E1AB"/>
<path fill-rule="evenodd" clip-rule="evenodd" d="M13.75 77.5H15V83.75C15 91.3441 21.1561 97.5 28.75 97.5H98.75C106.344 97.5 112.5 91.3441 112.5 83.75V43.75C112.5 36.1561 106.344 30 98.75 30H97.5V23.75C97.5 16.1561 91.3441 10 83.75 10H13.75C6.15608 10 0 16.1561 0 23.75V63.75C0 71.3441 6.15612 77.5 13.75 77.5ZM13.75 17.5C10.2982 17.5 7.5 20.2982 7.5 23.75V63.75C7.5 67.2019 10.2982 70 13.75 70H15V43.75C15 36.1561 21.1561 30 28.75 30H90V23.75C90 20.2982 87.2019 17.5 83.75 17.5H13.75ZM28.75 37.5H98.75C102.202 37.5 105 40.2982 105 43.75V83.75C105 87.2019 102.202 90 98.75 90H28.75C25.2982 90 22.5 87.2019 22.5 83.75V43.75C22.5 40.2982 25.2982 37.5 28.75 37.5Z" fill="#59E1AB"/>
</svg>
