<svg width="108" height="112" viewBox="0 0 108 112" fill="none" xmlns="http://www.w3.org/2000/svg">
<path d="M30.6697 80.1222C40.143 59.0704 68.3569 59.0704 77.8302 80.1222C78.6801 82.0109 80.9002 82.853 82.7888 82.0031C84.6775 81.1532 85.5195 78.9332 84.6697 77.0445C72.543 50.0963 35.9569 50.0963 23.8302 77.0445C22.9804 78.9332 23.8224 81.1532 25.7111 82.0031C27.5997 82.853 29.8198 82.0109 30.6697 80.1222Z" fill="#14CAEF"/>
<path d="M54.25 70.8334C47.2082 70.8334 41.5 76.5416 41.5 83.5834C41.5 90.6251 47.2082 96.3334 54.25 96.3334C61.2918 96.3334 67 90.6251 67 83.5834C67 76.5416 61.2918 70.8334 54.25 70.8334Z" fill="#14CAEF"/>
<path fill-rule="evenodd" clip-rule="evenodd" d="M54.25 0.833374C39.6945 0.833374 30.2353 6.98218 24.5401 14.8922C18.9825 22.6111 17.1667 31.7611 17.1667 37.9167V42.5H9.25C4.41764 42.5 0.5 46.4172 0.5 51.25V102.917C0.5 107.75 4.41764 111.667 9.25 111.667H99.25C104.083 111.667 108 107.749 108 102.917V51.25C108 46.4173 104.083 42.5 99.25 42.5H91.3333V37.9167C91.3333 31.7611 89.5175 22.6111 83.9599 14.8922C78.2647 6.98218 68.8055 0.833374 54.25 0.833374ZM83.8333 37.9167V42.5H24.6667V37.9167C24.6667 32.9613 26.1842 25.4446 30.6266 19.2745C34.9314 13.2957 42.1389 8.33337 54.25 8.33337C66.3611 8.33337 73.5686 13.2957 77.8734 19.2745C82.3158 25.4446 83.8333 32.9613 83.8333 37.9167ZM8 51.25C8 50.5596 8.55953 50 9.25 50H99.25C99.9406 50 100.5 50.5594 100.5 51.25V102.917C100.5 103.607 99.9406 104.167 99.25 104.167H9.25C8.55953 104.167 8 103.607 8 102.917V51.25Z" fill="#14CAEF"/>
</svg>
