<svg width="101" height="29" viewBox="0 0 101 29" fill="none" xmlns="http://www.w3.org/2000/svg">
<g clip-path="url(#clip0_5148_64413)">
<path d="M0.454224 0.244995V28.755H28.9642V0.244995H0.454224ZM8.44612 6.64031H14.5141C16.3023 6.64031 17.6874 6.99256 18.6693 7.69605C19.6511 8.38458 20.1421 9.38145 20.1421 10.6857C20.1421 11.4331 19.9665 12.0857 19.6142 12.6425C19.262 13.1843 18.7421 13.6174 18.0536 13.9397C19.0065 14.247 19.732 14.738 20.2299 15.4125C20.7428 16.0721 20.9993 16.8784 20.9993 17.8314C20.9993 18.7843 20.7498 19.5756 20.2519 20.2502C19.7679 20.9247 19.0724 21.4446 18.1633 21.8109C17.2543 22.1771 16.1626 22.3607 14.8873 22.3607H8.44513V6.64031H8.44612ZM11.7221 9.19086V13.1045H14.2068C15.057 13.1045 15.7016 12.9289 16.1417 12.5766C16.5957 12.2104 16.8232 11.7045 16.8232 11.0599C16.8232 9.81352 15.9511 9.19086 14.2068 9.19086H11.7221ZM11.7221 15.5672V19.8101H14.58C15.5619 19.8101 16.3173 19.6345 16.8452 19.2823C17.373 18.916 17.6365 18.3952 17.6365 17.7216C17.6365 16.2857 16.6326 15.5672 14.6239 15.5672H11.7221ZM71.7307 0.244995V28.755H100.241V0.244995H71.7307ZM87.1567 6.31002C88.0219 6.31002 88.8351 6.40581 89.5975 6.59641C90.3738 6.77203 91.0923 7.03646 91.7519 7.38771V10.51C91.1512 10.0999 90.4986 9.79157 89.7951 9.58701C89.0916 9.36748 88.3512 9.25771 87.5748 9.25771C86.5051 9.25771 85.5891 9.46327 84.8267 9.87339C84.0793 10.2835 83.5005 10.8772 83.0894 11.6546C82.6933 12.4309 82.4957 13.3769 82.4957 14.4905C82.4957 15.6041 82.6863 16.5571 83.0675 17.3484C83.4636 18.1247 84.0274 18.7185 84.7598 19.1296C85.5072 19.5397 86.4083 19.7453 87.4641 19.7453C89.0766 19.7453 90.5644 19.3132 91.9275 18.448V21.5045C91.2829 21.8707 90.5345 22.1571 89.6853 22.3617C88.8351 22.5812 87.941 22.691 87.003 22.691C85.7567 22.691 84.6361 22.5074 83.6392 22.1411C82.6424 21.76 81.8002 21.2181 81.1106 20.5146C80.4221 19.8111 79.8943 18.954 79.528 17.9421C79.1618 16.9163 78.9782 15.7658 78.9782 14.4905C78.9782 13.2152 79.1688 12.1236 79.55 11.1267C79.9312 10.1149 80.481 9.25073 81.1985 8.53226C81.9169 7.8138 82.7741 7.26398 83.771 6.88279C84.7828 6.50161 85.9104 6.31102 87.1567 6.31102V6.31002ZM36.092 0.244995V28.755H64.602V0.244995H36.092ZM44.0839 6.64031H50.1519C51.9401 6.64031 53.3251 6.99256 54.307 7.69605C55.2889 8.38458 55.7799 9.38145 55.7799 10.6857C55.7799 11.4331 55.6042 12.0857 55.252 12.6425C54.8997 13.1843 54.3798 13.6174 53.6913 13.9397C54.6443 14.247 55.3697 14.738 55.8677 15.4125C56.3806 16.0721 56.637 16.8784 56.637 17.8314C56.637 18.7843 56.3875 19.5756 55.8896 20.2502C55.4056 20.9247 54.7101 21.4446 53.8011 21.8109C52.892 22.1771 51.8004 22.3607 50.5251 22.3607H44.0829V6.64031H44.0839ZM47.3599 9.19086V13.1045H49.8445C50.6947 13.1045 51.3393 12.9289 51.7794 12.5766C52.2334 12.2104 52.4609 11.7045 52.4609 11.0599C52.4609 9.81352 51.5888 9.19086 49.8445 9.19086H47.3599ZM47.3599 15.5672V19.8101H50.2178C51.1996 19.8101 51.955 19.6345 52.4829 19.2823C53.0108 18.916 53.2742 18.3952 53.2742 17.7216C53.2742 16.2857 52.2704 15.5672 50.2617 15.5672H47.3599Z" fill="#1D2025"/>
</g>
<defs>
<clipPath id="clip0_5148_64413">
<rect width="99.7865" height="28.51" fill="white" transform="translate(0.454224 0.244995)"/>
</clipPath>
</defs>
</svg>
