<svg width="56" height="57" viewBox="0 0 56 57" fill="none" xmlns="http://www.w3.org/2000/svg">
<g clip-path="url(#clip0_5148_64433)">
<path d="M6.52941 6.69311C6.58289 6.46851 6.52941 6.41503 6.30481 6.30273L5.45989 5.96584C5.31016 5.93019 5.19786 6.02288 5.12299 6.24391C5.01069 6.46851 4.6738 7.53268 3.77005 7.53268C2.92513 7.53268 2.52941 6.24391 2.52941 4.90166C2.52941 3.55942 2.75401 2.32412 3.82353 2.32412C4.95187 2.32412 5.11765 3.44712 5.22995 3.89097C5.22995 4.05675 5.28342 4.05675 5.45455 4.05675H6.24064C6.35472 4.05675 6.41176 3.92662 6.41176 3.66637V0.805408C6.41176 0.655676 6.29946 0.580809 6.07487 0.580809H5.40107C5.23529 0.580809 5.23529 0.634285 5.12299 0.805408C5.06417 0.971184 4.8984 1.08348 4.6738 0.917708C4.27807 0.527333 3.65775 0.302734 3.04278 0.302734C2.42246 0.35621 0 1.14231 0 4.73054C0 8.31878 2.19251 9.43642 3.49198 9.43642C4.79144 9.43642 6.08021 8.42573 6.52941 6.69311Z" fill="#1D2025"/>
<path d="M34.5027 2.93373C34.5562 2.76795 34.615 2.76795 34.6738 2.93373L35.4064 5.17437C35.4653 5.34015 35.4064 5.34015 35.2407 5.34015H34C33.8503 5.34015 33.7754 5.28489 33.7754 5.17437L34.508 2.93373H34.5027ZM31.1818 9.26528H33.4332C33.7166 9.26528 33.7166 9.2118 33.7166 9.04068V8.02998C33.7166 7.75191 33.7166 7.69309 33.492 7.69309H33.1551C33.041 7.69309 33.0036 7.61822 33.0428 7.46849L33.3209 6.68239C33.3565 6.57187 33.451 6.51662 33.6043 6.51662H35.5722C35.738 6.51662 35.7968 6.51662 35.8503 6.68239L36.1337 7.46849C36.1694 7.61822 36.1319 7.69309 36.0214 7.69309H35.6845C35.5187 7.69309 35.4599 7.69309 35.4599 8.02998V9.04068C35.4599 9.20646 35.4599 9.26528 35.738 9.26528H38.9465C39.1711 9.26528 39.1711 9.2118 39.1711 8.92838V7.91769C39.1711 7.76795 39.0767 7.69309 38.8877 7.69309H38.6043C38.5294 7.69309 38.4742 7.61822 38.4385 7.46849L36.8075 2.31341C36.754 2.14763 36.754 2.08881 36.861 2.08881H37.1979C37.4225 2.08881 37.5348 2.01394 37.5348 1.86421V0.912338C37.5348 0.634263 37.5348 0.575439 37.3102 0.575439H32.9733C32.6364 0.575439 32.5829 0.575439 32.5829 0.912338V1.92303C32.5829 2.14763 32.6364 2.14763 32.861 2.14763H33.1979C33.4225 2.14763 33.4225 2.20111 33.3637 2.31341L31.7326 7.52196C31.6792 7.63426 31.6203 7.68774 31.508 7.68774H31.2834C31.0981 7.68774 31.0054 7.7626 31.0054 7.91234V8.92303C31.0054 9.20111 31.0054 9.25993 31.1711 9.25993" fill="#1D2025"/>
<path d="M43.7914 9.43642C45.7593 9.43642 47.2834 7.92306 47.2834 5.12092C47.2834 4.93553 47.1515 4.84284 46.8877 4.84284H44.5241C44.3743 4.84284 44.2995 4.91771 44.2995 5.06744V6.01931C44.2995 6.12983 44.3939 6.18509 44.5829 6.18509H45.1444C45.4278 6.18509 45.4278 6.23856 45.4278 6.40969C45.4278 6.85888 45.0321 7.53268 44.1337 7.53268C43.2353 7.53268 42.893 6.24391 42.893 4.90166C42.893 3.55942 43.1176 2.32412 44.1872 2.32412C45.0855 2.32412 45.4278 2.9391 45.5401 3.3883C45.5757 3.49881 45.6702 3.55407 45.8235 3.55407H46.6096C46.7201 3.55407 46.7754 3.42395 46.7754 3.1637V0.805408C46.7754 0.580809 46.7219 0.580809 46.3797 0.580809H45.7059C45.5347 0.580809 45.5347 0.634285 45.4813 0.805408C45.4278 0.971184 45.1978 1.08348 44.9732 0.917708C44.5775 0.527333 43.9572 0.302734 43.3957 0.302734C42.7219 0.35621 40.3583 1.14231 40.3583 4.73054C40.3583 8.31878 42.4973 9.43642 43.7914 9.43642Z" fill="#1D2025"/>
<path d="M52.1177 7.8696C51.3316 7.8696 50.7113 6.58083 50.7113 5.01399C50.7113 3.44714 51.3316 2.15837 52.1177 2.15837C52.9038 2.15837 53.5776 3.44714 53.5776 5.01399C53.5776 6.58083 52.9038 7.8696 52.1177 7.8696ZM52.1712 0.586182C50.0321 0.586182 48.2888 2.54875 48.2888 5.01399C48.2888 7.47923 50.0321 9.4418 52.1712 9.4418C54.3102 9.4418 56 7.47923 56 5.01399C56 2.54875 54.2567 0.586182 52.1712 0.586182Z" fill="#1D2025"/>
<path d="M8.49734 9.27065H11.6471C11.8717 9.27065 11.8717 9.21717 11.8717 8.93375V7.92306C11.8717 7.77332 11.779 7.69846 11.5936 7.69846H11.4813C11.3316 7.69846 11.2567 7.62359 11.2567 7.47386V5.90701C11.2567 5.57011 11.3102 5.51664 11.5348 5.51664H13.1658C13.3547 5.51664 13.4492 5.64676 13.4492 5.90701V7.47386C13.4492 7.62359 13.394 7.69846 13.2834 7.69846H13.1123C12.9269 7.69846 12.8342 7.77332 12.8342 7.92306V8.93375C12.8342 9.15835 12.9091 9.27065 13.0588 9.27065H16.2674C16.5508 9.27065 16.5508 9.21717 16.5508 9.04605V8.03536C16.5508 7.81076 16.4759 7.69846 16.3262 7.69846H16.0481C15.8984 7.69846 15.8235 7.6432 15.8235 7.53268V2.3776C15.8235 2.22787 15.8788 2.153 15.9893 2.153H16.2727C16.4973 2.153 16.5562 2.153 16.5562 1.98723V0.805409C16.5562 0.639634 16.5562 0.580811 16.2193 0.580811H13.1765C12.9519 0.580811 12.8984 0.634286 12.8984 0.858885V1.86958C12.8984 2.01931 12.9911 2.09418 13.1765 2.09418H13.3476C13.4599 2.09418 13.5134 2.09418 13.5134 2.31878V3.77332C13.5134 4.03357 13.4011 4.1637 13.1765 4.1637H11.5455C11.3601 4.1637 11.2674 4.03357 11.2674 3.77332V2.31878C11.2674 2.16905 11.3048 2.09418 11.3797 2.09418H11.5455C11.7344 2.09418 11.8289 2.01931 11.8289 1.86958V0.858885C11.8289 0.634286 11.7754 0.580811 11.5455 0.580811H8.50803C8.22461 0.580811 8.22461 0.634286 8.22461 0.805409V1.98188C8.22461 2.0924 8.31908 2.14766 8.50803 2.14766H8.73263C8.89841 2.14766 8.95723 2.20113 8.95723 2.37225V7.52733C8.95723 7.63785 8.86276 7.69311 8.67381 7.69311H8.44921C8.29948 7.69311 8.22461 7.80541 8.22461 8.03001V9.0407C8.22461 9.19044 8.31908 9.2653 8.50803 9.2653" fill="#1D2025"/>
<path d="M18.2942 9.27065H21.5027C21.7861 9.27065 21.7861 9.21717 21.7861 9.04605V8.03536C21.7861 7.81076 21.7113 7.69846 21.5615 7.69846H21.3369C21.1872 7.69846 21.1123 7.6432 21.1123 7.53268V2.3776C21.1123 2.22787 21.1872 2.153 21.3369 2.153H21.4492C21.6346 2.153 21.7273 2.09774 21.7273 1.98723V0.805409C21.7273 0.639634 21.7273 0.580811 21.3904 0.580811H18.3476C18.123 0.580811 18.0642 0.634286 18.0642 0.858885V1.86958C18.0642 2.09418 18.123 2.09418 18.3476 2.09418H18.6845C18.7594 2.09418 18.7968 2.16905 18.7968 2.31878V7.47386C18.7968 7.62359 18.7416 7.69846 18.6311 7.69846H18.3476C18.1587 7.69846 18.0642 7.77332 18.0642 7.92306V8.93375C18.0642 9.27065 18.123 9.27065 18.2888 9.27065" fill="#1D2025"/>
<path d="M26.3958 9.43642C27.7487 9.43642 29.0428 8.42573 29.4332 6.69311C29.5455 6.46851 29.492 6.41503 29.2086 6.30273L28.3637 5.96584C28.2496 5.93019 28.1373 6.02288 28.0268 6.24391C27.9733 6.46851 27.5776 7.53268 26.7327 7.53268C25.8343 7.53268 25.492 6.24391 25.492 4.90166C25.492 3.55942 25.7166 2.32412 26.7862 2.32412C27.8557 2.32412 28.0803 3.44712 28.1391 3.89097C28.1747 4.00149 28.2692 4.05675 28.4225 4.05675H29.2086C29.3191 4.05675 29.3744 3.92662 29.3744 3.66637V0.805408C29.3744 0.580809 29.3209 0.580809 29.0375 0.580809H28.3049C28.1926 0.580809 28.1926 0.634285 28.0803 0.805408C28.0268 0.971184 27.8557 1.08348 27.5722 0.917708C27.1765 0.527333 26.615 0.302734 25.9947 0.302734C25.3744 0.35621 22.9573 1.14231 22.9573 4.73054C22.9573 8.31878 25.0963 9.43642 26.3904 9.43642" fill="#1D2025"/>
<path d="M10.7487 16.7199C10.7487 16.4418 10.8022 16.383 11.0856 16.383C11.4225 16.383 12.6043 16.4365 12.6043 17.506C12.6043 18.5755 11.4813 18.5167 11.0856 18.5167C10.8022 18.5167 10.7487 18.5167 10.7487 18.1798V16.7252V16.7199ZM10.7487 13.3028C10.7487 13.0782 10.861 12.9659 11.0856 12.9659C11.3637 12.9659 12.6043 13.0194 12.6043 14.0889C12.6043 15.0996 11.4813 15.0996 11.0856 15.0996C10.7487 15.0996 10.7487 15.0461 10.7487 14.7627V13.3081V13.3028ZM7.98933 20.137H12.7166C13.8984 20.137 14.7433 19.0728 14.7433 17.8964C14.7433 16.6611 14.0107 16.2172 13.3904 15.768C13.7861 15.3776 14.5722 14.9284 14.5722 13.6931C14.5722 12.3456 13.2193 11.506 12.4332 11.506H8.09628C7.75939 11.506 7.70056 11.506 7.70056 11.7841V12.8482C7.70056 13.014 7.70056 13.0728 7.98398 13.0728H8.26741C8.37792 13.0728 8.43318 13.1477 8.43318 13.2974V18.3937C8.43318 18.5595 8.37971 18.6183 8.20858 18.6183H7.92516C7.75404 18.6183 7.70056 18.6183 7.70056 18.8429V19.9071C7.70056 20.1316 7.75404 20.1316 7.98398 20.1316" fill="#1D2025"/>
<path d="M19.9786 20.4203C22.23 20.4203 22.7915 18.7947 22.7915 17.677V13.2492C22.7915 13.0834 22.8449 13.0834 23.0161 13.0834H23.353C23.6364 13.0834 23.6364 13.03 23.6364 12.8054V11.7947C23.6364 11.6093 23.5045 11.5166 23.2407 11.5166H20.9893C20.8396 11.5166 20.7647 11.6093 20.7647 11.7947V12.8054C20.7647 12.9551 20.8592 13.03 21.0482 13.03H21.2728C21.4439 13.03 21.4974 13.03 21.4974 13.2546V17.5113C21.4974 17.9016 21.2728 18.7412 20.1444 18.7412C19.246 18.7412 18.8503 17.9551 18.8503 17.5113V13.1957C18.8503 13.0852 18.9073 13.03 19.0214 13.03H19.246C19.4706 13.03 19.5829 12.9551 19.5829 12.8054V11.7947C19.5829 11.5166 19.5294 11.5166 19.2995 11.5166H16.3155C16.0909 11.5166 15.9786 11.6289 15.9786 11.8535V12.8054C15.9786 13.03 15.9786 13.0834 16.2032 13.0834H16.4813C16.6524 13.0834 16.7059 13.0834 16.7059 13.2492V17.677C16.7059 18.8 17.7754 20.4203 19.9679 20.4203" fill="#1D2025"/>
<path d="M33.3209 18.6289H33.0374C32.8877 18.6289 32.8128 18.7216 32.8128 18.907V19.9177C32.8128 20.0674 32.8877 20.1423 33.0374 20.1423H38.6096C38.8342 20.1423 38.8931 20.1423 38.8931 19.8054V17.3401C38.8931 17.1155 38.8931 17.0621 38.6096 17.0621H37.8235C37.5401 17.0621 37.5401 17.1155 37.5401 17.399V18.2974C37.5401 18.522 37.4474 18.6342 37.262 18.6342H36.0802C35.6845 18.6342 35.6845 18.5808 35.6845 18.3562V13.3669C35.6845 13.1423 35.7398 13.03 35.8503 13.03H36.1872C36.4118 13.03 36.4118 12.9765 36.4118 12.8054V11.7947C36.4118 11.6093 36.3173 11.5166 36.1284 11.5166H33.1444C32.9198 11.5166 32.8075 11.6093 32.8075 11.7947V12.8054C32.8075 13.03 32.8075 13.0834 33.0321 13.0834H33.3155C33.4813 13.0834 33.5401 13.0834 33.5401 13.3615V18.3508C33.5401 18.5754 33.4813 18.6289 33.3155 18.6289" fill="#1D2025"/>
<path d="M43.1123 18.5701C42.2674 18.5701 41.7059 17.8963 41.5936 17.3937C41.5579 17.2832 41.4652 17.2279 41.3155 17.2279H40.754C40.6417 17.2279 40.5882 17.2279 40.5882 17.5648V19.9712C40.5882 20.0817 40.7201 20.137 40.9839 20.137H41.3208C41.3957 20.137 41.4884 20.0621 41.5989 19.9124C41.6524 19.8001 41.8823 19.5755 42.1604 19.8001C42.5561 20.137 43.1711 20.3616 43.738 20.3616C44.4706 20.3616 46.2139 19.5755 46.2139 17.7306C46.2139 16.2172 45.2567 15.4899 44.2995 15.0407C43.2834 14.5915 42.7219 14.1423 42.7219 13.6397C42.7219 13.3028 42.9465 13.0782 43.3422 13.0782C44.2406 13.0782 44.8021 13.752 44.9733 14.2546C45.0089 14.3652 45.1016 14.4204 45.2513 14.4204H45.7594C45.8699 14.4204 45.9251 14.2903 45.9251 14.03V11.6771C45.9251 11.5274 45.8128 11.4525 45.5882 11.4525H45.1925C45.1176 11.4525 45.0428 11.5452 44.9679 11.7306C44.9091 11.8429 44.6845 12.0675 44.4064 11.8429C44.0107 11.506 43.4492 11.2814 42.8877 11.2814C42.1551 11.2814 40.4706 12.0675 40.4706 13.8589C40.4706 15.6504 41.7647 16.2119 42.6096 16.6611C43.4545 17.1102 43.9037 17.276 43.9037 18.0621C43.9037 18.4525 43.5668 18.5648 43.1176 18.5648" fill="#1D2025"/>
<path d="M27.9733 18.3456V13.3562C27.9733 13.1316 28.0286 13.0194 28.1391 13.0194H28.476C28.7006 13.0194 28.7006 12.9659 28.7006 12.7948V11.7841C28.7006 11.5987 28.6061 11.506 28.4172 11.506H25.4332C25.2086 11.506 25.0963 11.5987 25.0963 11.7841V12.7948C25.0963 13.0194 25.0963 13.0728 25.3209 13.0728H25.6043C25.7755 13.0728 25.8289 13.0728 25.8289 13.3509V18.3402C25.8289 18.5648 25.7755 18.6183 25.6043 18.6183H25.3209C25.1712 18.6183 25.0963 18.711 25.0963 18.8964V19.9071C25.0963 20.0568 25.1712 20.1316 25.3209 20.1316H30.8931C31.1177 20.1316 31.1765 20.1316 31.1765 19.7948V17.3295C31.1765 17.1049 31.1765 17.0514 30.8931 17.0514H30.107C29.8236 17.0514 29.8236 17.1049 29.8236 17.3883V18.2867C29.8236 18.5113 29.7309 18.6236 29.5455 18.6236H28.3637C27.968 18.6236 27.968 18.5702 27.968 18.3456" fill="#1D2025"/>
<path d="M31.9145 49.8963C32.1391 50.399 31.968 50.9605 31.6899 51.3508C31.1284 51.9658 30.3369 52.2492 29.5508 52.0246C29.1017 51.9123 28.6525 51.6343 28.369 51.1262C28.2033 51.5166 28.5402 51.8535 28.4813 52.1904C28.4279 52.3027 28.3156 52.3027 28.2567 52.2439C27.8075 51.6289 27.6364 50.7305 28.0321 50.0567C28.5402 49.2172 29.4386 48.8268 30.4546 48.9337C31.0161 49.046 31.6364 49.3241 31.9198 49.8856M31.6364 54.7626C31.353 54.6503 31.0161 54.538 30.6792 54.4257C27.8664 53.3027 24.2621 53.6396 21.615 54.7626C21.5615 54.6503 21.5027 54.5968 21.4492 54.4845C24.5455 53.1423 28.7648 52.9712 31.861 54.4845C31.8075 54.5968 31.7487 54.5968 31.6364 54.7626ZM21.3904 49.8856C21.9519 49.1583 23.0214 48.9337 23.9252 49.2706C24.3744 49.3829 24.8824 49.7733 25.107 50.2225C25.5027 50.8375 25.3316 51.7359 24.9412 52.2974C24.8824 52.4097 24.8289 52.522 24.7166 52.4097C24.5509 52.2439 24.7701 52.0728 24.7701 51.8482C24.8236 51.6824 24.8824 51.5113 24.8236 51.3455C24.2621 52.0728 23.4706 52.4097 22.6311 52.2439C22.0107 52.1316 21.4492 51.6824 21.2246 51.0674C21.1123 50.677 21.1658 50.2279 21.3904 49.891M19.3102 49.2172C19.4225 51.4578 19.984 53.5327 21.5027 55.2118C24.5455 56.5006 28.7059 56.3883 31.7487 55.1583C33.1017 53.5327 33.8289 51.6824 34.1123 49.6075C33.2674 48.9337 32.369 48.4845 31.4118 48.0407C27.6952 46.3615 22.5722 46.8642 19.3102 49.2172ZM37.6578 34.7573C37.4867 34.7573 37.3209 34.8107 37.2086 34.923C37.2086 35.4845 37.0963 36.046 36.8129 36.4899C36.4172 37.1049 35.6311 37.3883 34.8984 37.3883C34.845 37.5006 34.845 37.6129 34.8984 37.7252C35.4065 37.7252 35.9145 37.6129 36.3637 37.3883C37.3209 36.8856 37.6578 35.8214 37.6578 34.7573ZM35.6311 40.6984C34.9573 40.5861 34.3904 40.0246 34.1123 39.4097C33.6632 40.8642 33.2674 42.3776 33.1017 43.9498C32.9894 45.2385 32.9305 46.5273 33.3263 47.7038C34.5669 45.3508 35.7487 42.9979 36.7059 40.5861C36.369 40.6984 35.9733 40.7519 35.6364 40.6984M18.4118 37.2225C16.3316 37.2225 15.9359 35.8803 15.9359 34.923C15.8236 34.8696 15.6525 34.8696 15.4867 34.923C15.4332 36.6022 16.7273 37.6129 17.9626 37.6129C18.2407 37.6664 18.2995 37.6129 18.4706 37.6129C18.4172 37.4471 18.5241 37.4471 18.4172 37.2225M50.722 21.8107C50.6685 21.4738 50.6685 21.1369 50.5509 20.7466C50.1551 20.522 49.8182 20.1851 49.4279 20.0193C48.9787 20.2439 48.4706 20.5808 47.9626 20.8054C47.6792 21.2546 47.4011 21.645 47.1177 22.0942C44.8664 25.2332 40.7006 24.3348 37.3263 24.3348C37.8343 26.0728 38.1712 27.923 38.4546 29.7733C38.4546 30.0514 38.5081 30.4471 38.5669 30.7252C41.7166 30.6717 44.7006 30.1102 47.2888 28.538C49.7113 27.1369 50.8931 24.6182 50.722 21.8161M34.4546 38.8482C34.5081 39.1262 34.5669 39.4097 34.738 39.6343C35.0749 40.0835 35.5241 40.3615 36.0321 40.2492C36.7648 40.1369 37.3263 39.4631 37.5509 38.7947C36.6471 39.3562 35.2995 39.522 34.4546 38.8482ZM38.1124 31.1156C37.8289 27.9765 37.492 26.0728 36.8717 24.3348C35.4653 24.2225 29.0482 23.9979 26.6257 23.9979C24.2033 23.9979 17.8984 24.3883 16.4386 24.4471C15.8771 26.1262 15.1979 28.2011 14.9198 31.2867C12.107 31.4524 8.27813 32.2385 5.74871 33.1904C5.35299 33.3562 5.18722 33.4685 5.18722 33.4685C5.58294 33.9177 6.98936 35.5968 9.63641 35.6557C10.4813 35.6557 12.0589 35.5434 13.1284 35.0942C13.4065 34.9284 13.9733 34.7038 13.9733 34.7038C13.9733 34.7038 14.1391 35.0407 14.2514 35.3188C14.5348 36.1049 14.8717 37.2225 15.0963 37.7305C15.492 38.4578 16.0535 39.0193 17.0642 39.0728C17.9091 39.0728 18.5295 38.3455 18.6418 38.2332C16.1658 38.0674 15.1551 36.7787 14.984 34.7573C14.3637 34.645 14.1979 34.5915 14.1391 34.3081C14.0856 33.9712 14.1926 33.6343 14.4225 33.2439C14.7006 32.907 15.1551 32.5166 16.3369 32.907C17.123 33.1316 17.7434 33.6343 18.1391 34.03C18.7006 34.4792 20.1658 35.9926 21.0642 36.5487C22.0214 37.1102 23.8236 37.6129 25.0054 36.4364C26.1872 35.3134 26.2995 34.3615 26.4653 33.8054C24.4386 33.7519 22.5829 33.5273 20.8396 33.3027C20.3316 33.2492 20.5562 32.7412 20.9519 32.8535C20.9519 32.8535 24.214 33.3027 26.5241 33.3027V32.0728C25.1712 32.0193 22.9198 31.907 20.7808 31.4578C20.3316 31.3455 20.3851 30.8428 20.8396 30.9551C21.1177 31.0674 24.6685 31.5701 26.5829 31.5701V30.0033C25.3423 30.0567 23.4867 29.891 20.8984 29.5006C20.4492 29.4471 20.5027 29.0514 20.8984 29.0514C20.8984 29.0514 24.1605 29.5541 26.5829 29.5006V28.2706C26.5829 27.8214 26.9787 27.768 26.9787 28.2706C26.9787 28.4364 27.0321 28.8856 27.0321 29.5006C29.3369 29.4471 31.4225 29.1637 32.3797 28.9979C32.9412 28.8856 32.8878 29.3348 32.6043 29.3883C32.2674 29.4418 29.5615 29.9498 26.9733 30.0033C26.9733 30.4524 27.0268 31.0674 27.0268 31.5166C28.7701 31.4631 30.7434 31.4043 32.4867 31.0139C33.107 30.9016 33.1605 31.4043 32.599 31.4631C30.9091 31.7412 28.4867 32.0246 27.0268 32.0781C27.0268 32.4685 27.0268 32.9765 27.0803 33.3081C29.8396 33.2546 32.4279 32.8589 32.8771 32.8054C33.3263 32.6931 33.4386 33.1958 32.9305 33.2546C32.4813 33.3081 29.214 33.7573 27.1337 33.7573C27.3583 34.4845 27.3583 35.4952 28.3744 36.3348C29.3904 37.1744 31.0214 37.1209 32.2033 36.4471C33.1017 35.9444 34.5081 34.3722 35.0161 33.9284C35.4653 33.538 36.4813 32.6396 37.8289 32.6396C39.1765 32.6396 39.1819 33.3669 39.2353 33.538C39.2888 33.7626 39.3476 34.153 39.0642 34.3241C38.8396 34.4952 38.615 34.4364 38.3904 34.5487C38.2193 35.6129 37.8824 36.8482 36.984 37.5166C36.0856 38.1904 34.6204 38.3027 34.6204 38.3027C34.6204 38.3027 34.845 38.5273 34.9038 38.5808C35.0161 38.6931 35.5241 38.9712 36.1979 38.9177C36.7594 38.8589 37.492 38.415 37.7755 38.0781C38.2247 37.5166 38.6204 36.2867 38.9573 35.5006C39.0696 35.2225 39.353 34.7145 39.4065 34.4899C39.6899 34.6022 39.8022 34.6557 40.3049 34.8803C41.3744 35.2706 42.7273 35.4418 43.5669 35.4418C44.9198 35.3883 46.4974 34.5434 47.4492 33.7038C47.615 33.538 47.8984 33.1423 47.8984 33.1423C47.8984 33.1423 47 32.8054 46.7166 32.7519C44.1819 31.7412 40.861 31.1851 38.107 31.1262M5.23534 20.3669C4.78615 18.5754 4.78615 16.5594 4.83962 14.6503C3.94123 16.5006 3.26208 18.4578 2.87171 20.4792C3.26208 20.0888 3.60433 19.6396 3.9947 19.2492C4.39042 19.5861 4.83962 20.0353 5.23534 20.3722M49.476 19.4738L50.4332 20.1476L50.3209 19.645C49.8129 17.907 49.3102 16.169 48.4653 14.5487C48.5776 16.4524 48.5241 18.3562 48.1872 20.153C48.6364 19.9284 49.0321 19.6503 49.4813 19.4792M17.8503 40.5487C18.6364 40.2706 18.8664 39.4845 18.9787 38.6984H18.9252C18.0803 39.3134 16.7861 39.8214 15.8289 39.2011C15.8824 39.4792 16.0535 39.7038 16.2246 39.9284C16.6204 40.3776 17.2407 40.7145 17.8557 40.5434M19.2621 39.3669C19.091 39.9284 18.8129 40.4311 18.3049 40.768C17.7968 41.1583 17.0107 40.9337 16.5027 40.7145C17.6311 43.1262 18.7541 45.4792 20.2193 47.7198C20.7808 44.9765 20.5027 41.7787 19.2621 39.3722M28.1551 44.9765C26.2995 45.4792 24.1605 45.0888 22.9198 43.5754C22.0214 42.4524 21.5669 41.1102 21.4011 39.6557C21.5134 39.6022 21.6257 39.6022 21.738 39.6022C21.9038 41.677 23.0321 44.03 25.1123 44.6984C26.9145 45.2599 29.107 44.6984 30.4011 43.1316C31.246 42.0674 31.8075 40.7787 32.091 39.4899C32.2033 39.4899 32.2621 39.4899 32.3744 39.6022C31.8664 41.8428 30.4599 44.3669 28.1551 44.9819M31.3049 38.9872C29.615 39.4364 27.7006 38.9872 26.6899 37.4204C26.5241 37.5861 26.4653 37.7573 26.2942 37.8696C24.7754 39.6075 22.1284 39.4364 20.2728 38.6557C21.1712 41.0086 21.5669 43.7519 21.0054 46.3883C20.8931 46.9498 20.722 47.5113 20.5562 48.0674C23.9894 46.276 28.8289 46.2172 32.3209 47.9551C32.6043 48.0674 32.8289 48.2332 33.0535 48.3455C32.6043 46.8909 32.3209 45.3188 32.3209 43.6931C32.2674 41.8428 32.6578 39.9979 33.1658 38.3722C32.6043 38.5968 31.984 38.8749 31.3102 38.9872M14.5402 30.6931C14.8236 28.6182 15.3263 26.6022 16.0054 24.6396V24.5273C14.6525 24.6396 13.3049 24.8054 11.8984 24.8054C9.42251 24.9177 6.94657 24.1316 5.76476 21.8375C5.59363 20.9979 4.63641 20.4952 4.02144 19.8749C3.62572 20.3776 3.17652 20.8268 2.72732 21.3295C2.3316 23.7947 2.7808 26.3188 4.58294 28.1102C7.28347 30.522 10.9412 30.8 14.5455 30.6877" fill="#1D2025"/>
</g>
<defs>
<clipPath id="clip0_5148_64433">
<rect width="56" height="55.8342" fill="white" transform="translate(0 0.302734)"/>
</clipPath>
</defs>
</svg>
