<svg width="55" height="29" viewBox="0 0 55 29" fill="none" xmlns="http://www.w3.org/2000/svg">
<path d="M13.5279 0.605261C-4.41629 0.605261 -4.24156 28.1418 13.7725 28.1593H20.8139C23.8367 28.1593 25.7936 26.2199 25.7936 22.6555V15.684C25.7936 15.684 29.7424 22.7429 31.2974 25.5035C33.9357 30.2036 40.3132 29.2775 40.2957 23.4068V15.684C40.2957 15.684 44.2445 22.7429 45.7995 25.5035C48.4379 30.1861 54.8153 29.2775 54.7978 23.4068V0.605261H51.6877V22.9001C51.6877 23.9485 51.1461 24.5425 50.6219 24.7172C49.9929 24.9269 49.294 24.6473 48.8572 23.9834C48.7698 23.8261 40.3132 9.25412 38.2165 5.53249C38.0418 5.27041 37.7797 5.1481 37.5525 5.23546C37.3079 5.32282 37.1681 5.58491 37.1681 6.00425V22.9001C37.1681 23.9659 36.6265 24.5425 36.1198 24.7347C35.4908 24.9444 34.8094 24.6473 34.39 23.9834C34.39 23.9834 34.2328 23.7213 33.9882 23.302C33.7435 22.8826 33.3941 22.2886 32.9748 21.5547C32.1361 20.1045 31.0004 18.1476 29.8122 16.0858C27.4185 11.9624 24.7802 7.38457 23.7318 5.51502C23.5571 5.25293 23.295 5.13063 23.0679 5.21799C22.8233 5.30535 22.6835 5.56744 22.6835 5.98678V22.7953C22.6835 23.8786 21.8623 24.7522 20.8663 24.7522H13.3357C9.91112 24.7522 7.39509 23.4068 5.75268 21.4499C4.11027 19.493 3.32401 16.9071 3.32401 14.4085C3.32401 11.8226 4.14521 9.21918 5.78762 7.26226C7.41256 5.30535 9.84123 3.99492 13.0212 3.97744H17.5815V0.605261H13.5803H13.5279ZM23.0329 0.500427C20.6043 0.465482 18.4552 2.57965 18.4552 5.61985V19.3707C18.4552 19.8599 18.1057 20.3142 17.6165 20.3142H13.6328C5.00136 20.3142 5.77015 8.41545 13.1261 8.41545C16.3934 8.41545 17.5291 8.41545 17.5291 8.41545V5.07821H12.9688C10.1033 5.07821 7.93674 6.24886 6.48652 8.01358C5.03631 9.76082 4.28499 12.1021 4.28499 14.4085C4.28499 16.645 4.98389 18.9513 6.46905 20.6986C7.93674 22.4458 10.1907 23.6514 13.2833 23.6514H20.8139C21.2507 23.6514 21.6177 23.2496 21.6177 22.7953V5.98678C21.6177 5.11315 22.037 4.39678 22.7184 4.16964C23.3824 3.9425 24.0987 4.23953 24.5356 4.90348C25.6014 6.77304 28.2397 11.3508 30.6334 15.4918C31.8216 17.5535 32.9573 19.5104 33.796 20.9607C34.2153 21.677 34.5647 22.2711 34.8094 22.6904C35.054 23.1098 35.1763 23.3369 35.1938 23.3719C35.3685 23.6339 35.5956 23.7388 35.7703 23.6689C35.8752 23.6339 35.9625 23.5466 36.015 23.4243C36.0849 23.2845 36.1198 23.1098 36.1198 22.9001V5.98678C36.1198 5.11315 36.5391 4.39678 37.2206 4.16964C37.8845 3.9425 38.6009 4.23953 39.0377 4.90348C40.1035 6.77304 42.7419 11.3508 45.1356 15.4918C47.5293 19.6153 49.6609 23.302 49.6959 23.3544C49.8706 23.6165 50.0978 23.7213 50.3074 23.6689C50.4123 23.6339 50.4996 23.5466 50.5695 23.4243C50.6394 23.2845 50.6743 23.1098 50.6743 22.9001V0.605261H47.5468V13.6222C47.5468 13.6222 45.6073 10.0928 42.3225 3.99492C39.0901 -1.98066 33.0097 0.482955 33.0097 5.63733V13.6222C33.0097 13.6222 31.1227 10.0928 27.8379 3.99492C26.475 1.56625 24.6753 0.535372 23.0329 0.500427Z" fill="#1D2025"/>
</svg>
