<svg width="153" height="25" viewBox="0 0 153 25" fill="none" xmlns="http://www.w3.org/2000/svg">
<g clip-path="url(#clip0_5148_64423)">
<path d="M16.7753 9.3571C14.7181 10.1 12.1467 9.92852 10.0895 10.4428C9.06096 10.6714 7.17525 10.9571 6.71811 12.2714C6.83239 12.7285 6.48953 13.9285 6.88953 14.3857C7.97524 16.6142 9.97525 14.4428 11.6324 14.8428C11.9753 14.4428 13.2324 14.7285 13.9181 14.3285C14.2038 14.2714 14.4324 14.7285 14.3752 14.9571C14.3752 15.4714 13.8038 15.4142 13.6895 15.8714C10.3753 17.3571 7.40383 17.0142 4.26097 15.7571C3.46097 15.7 3.46097 14.2714 3.40383 13.9857C4.8324 10.3285 7.74668 7.47138 11.1181 5.07138C13.8038 2.78567 13.2324 7.47138 15.5752 7.01424C16.661 6.38566 16.6038 5.75709 16.7753 4.67138C16.3181 3.35709 16.0324 1.29995 14.2038 1.01424C13.6895 0.785664 12.8895 0.385668 12.2038 0.785668C11.461 0.328525 11.1181 1.41425 10.3181 1.47139C8.66096 2.04282 7.51811 4.04281 5.68954 4.78567C5.28954 5.7571 4.14667 6.09996 3.80382 7.12853C3.00382 7.87139 2.71811 8.4428 2.20382 9.2428C2.08954 9.41423 1.63239 9.24281 1.86096 9.69996C1.57525 9.81424 1.57524 10.2142 1.23239 10.2142C1.28953 10.7285 0.660959 11.4714 0.660959 11.9857C-0.31047 13.7571 0.603813 15.7571 1.17524 17.4714C2.20381 18.5571 2.3181 19.0142 3.80382 19.4714C6.26096 20.3857 9.57525 20.8428 12.0895 19.8142C12.661 19.8142 13.1181 19.0142 13.8038 19.4142C13.9181 20.6714 13.2324 22.4428 13.9181 23.8142C15.0038 24.2142 16.0895 24.7285 17.1752 24.2142C17.7467 23.8142 17.7467 22.9571 17.9181 22.2142C17.6324 19.7571 18.261 17.0142 19.2895 14.5C20.261 12.7857 19.3467 10.7857 18.261 9.47139L16.7753 9.3571Z" fill="#1D2025"/>
<path d="M100.832 15.8713C99.0039 15.4142 97.7467 16.8428 96.0324 16.8999C95.1181 17.0713 94.5467 16.3856 93.9181 15.9285C93.861 15.5285 93.9753 15.1856 94.261 14.957C94.7753 14.8999 95.461 14.3285 96.0896 14.7285C97.3467 14.0999 98.661 14.5571 100.261 14.0428C101.347 13.6428 103.232 14.2713 103.69 12.4999C103.747 11.1856 103.804 9.52849 102.547 8.84277C100.604 10.0428 98.4324 10.3285 96.1467 10.1571C96.0324 9.35705 96.8896 8.61419 97.1753 8.09991L100.432 7.29991C102.318 6.72848 105.004 6.72849 107.004 5.69992C107.575 4.84277 107.118 3.8142 107.004 2.84277C107.004 2.38563 106.432 2.27134 106.604 1.81419C106.204 1.35705 105.804 0.442764 105.004 0.671336C102.261 1.75705 98.8896 2.49991 95.861 2.95705L95.0039 3.52848C94.4896 4.95705 93.7467 6.32849 93.2896 7.69992C92.7181 8.95706 91.7467 10.0428 91.4039 11.2428C90.2039 13.1285 89.9753 15.7571 90.5467 17.9856C91.3467 19.9856 93.5181 21.3571 95.5181 21.4713C97.3467 22.0999 99.3467 21.1285 100.947 19.8713C101.118 19.3571 101.518 18.5571 101.347 18.1571C101.69 17.3571 101.118 16.4999 100.832 15.8713Z" fill="#1D2025"/>
<path d="M42.6609 9.41425C41.6324 9.58568 40.7181 10.1 39.6324 9.58568C39.4038 9.18568 39.8038 8.72854 39.9752 8.32854C42.661 6.95711 45.7467 7.12854 48.4324 6.04283C48.8895 5.35711 48.2038 4.5571 48.2038 3.87139C48.0324 3.01425 47.6324 2.27139 47.0609 1.64282C43.7467 1.92854 40.6609 2.95711 37.4609 3.64282C36.1467 3.58568 35.2895 4.9571 34.7752 5.81424C34.7752 7.18567 34.8895 7.98568 35.8609 8.72853C35.9752 9.58568 35.8038 10.6142 35.1181 11.3C34.5467 13.1857 33.9181 14.7285 34.3752 16.7857C35.1752 19.7 38.3181 20.7285 41.2895 21.2428C42.6038 21.3 43.8609 20.5571 44.3752 19.4714C44.5467 17.8143 44.2609 16.9 43.0609 15.6428C42.4324 15.4143 41.9752 16.0428 41.4609 16.2714C40.2038 16.3857 39.2324 16.2714 38.261 15.5285C38.261 15.2428 38.261 14.6714 38.5467 14.3285C41.0038 13.4714 43.5752 14.0428 46.0895 13.3C46.8895 11.8714 46.4324 10.4428 45.4609 9.18569C44.5467 8.55711 43.5752 9.18568 42.6609 9.41425Z" fill="#1D2025"/>
<path d="M61.5181 6.38569C62.2609 6.44284 62.6038 5.58569 62.6038 5.24284C62.8324 4.09998 61.7467 3.41428 61.5752 2.32856C60.3752 1.01428 58.4324 2.21427 56.9467 2.15713C54.8895 2.89998 52.0895 3.01426 50.1467 4.67141C49.8038 5.52855 49.9181 6.3857 49.8038 7.29998C48.6038 9.5857 47.9752 12.3857 47.4038 14.9571C47.4038 16.6143 48.3752 18.0428 49.1752 19.4714C49.4609 20.6143 51.0609 20.0428 51.6324 20.7857C53.4609 20.9 56.9467 21.7 58.0895 19.5285C58.0895 18.7285 58.5467 17.2428 57.8038 16.3857C57.5752 15.8143 57.0609 15.2428 56.4324 15.0714C55.7467 16.1 54.4895 16.1571 53.3467 16.2714C52.4895 15.9286 51.0609 16.3286 50.9467 15.0714C51.4038 14.3286 52.7752 14.3286 53.3467 14.2143C53.8038 13.8714 55.061 14.3285 55.4038 13.8143C57.061 13.7571 58.2038 13.4143 59.6895 12.8428C60.661 12.4428 60.0895 11.3571 60.2038 10.7286C59.5181 9.75712 59.6895 8.27142 58.0324 8.32856C57.3467 8.95714 56.0324 9.07142 55.1752 9.41427C54.4895 9.41427 53.6324 9.69999 53.1752 9.41427C54.3752 5.64285 58.7752 7.12855 61.5181 6.38569Z" fill="#1D2025"/>
<path d="M29.9181 13.4714C29.4609 12.4429 31.2324 12.2714 31.2324 11.1857C32.8895 8.67144 32.3181 5.52856 30.6609 2.95714C29.8038 1.47142 28.0324 0.671432 26.2609 0.84286C25.6324 0.328575 24.7752 1.7 23.8038 1.12857C23.4609 1.3 22.7181 1.52857 22.7181 2.15714C21.6895 2.72857 21.8038 4.21429 21.8038 5.07143C22.0324 6.15714 23.5752 6.15714 22.7752 7.35714C22.3181 7.98571 22.4895 9.18571 21.7467 9.92857C20.8895 9.92857 20.5467 10.4429 20.2038 11.1857C19.9181 12.2143 20.4895 13.5857 21.0609 14.2714C20.8324 15.7 20.9467 16.3286 20.7181 17.7L20.7752 17.7572C20.6038 18.3286 20.8895 19.3 21.0038 19.8143C21.4609 20.5 22.0895 21.4714 23.0609 21.3571C23.6895 21.4143 24.0895 21.2429 24.3181 20.7286C24.4895 19.8714 24.7181 19.0143 24.2038 18.1571C24.5467 17.5857 23.9752 16.5571 24.3752 15.8714C24.4324 15.3571 24.4895 15.3572 25.0038 15.1857C25.8038 15.9286 26.7181 16.5571 27.6324 17.3C29.4038 18.2143 30.0324 20.6714 32.3181 20.3857C33.0038 19.5857 34.0895 18.6714 34.0895 17.6429C33.9181 15.0714 31.2324 15.2429 29.9181 13.4714ZM26.5467 9.52856C26.4895 9.75714 26.1466 9.58572 26.0324 9.75715L25.8609 9.58571C26.1467 8.21428 26.4324 6.78571 26.4324 5.35714C27.4038 5.18571 27.7467 5.41428 28.4324 6.15714C29.0038 7.75714 27.5181 8.67142 26.5467 9.52856Z" fill="#1D2025"/>
<path d="M92.6609 6.78563C92.4324 4.72848 91.5181 2.27134 89.1752 1.58562C86.1466 0.842766 82.0895 1.01421 79.5181 2.32849C78.3181 1.98563 77.2895 2.95705 76.6038 2.72848C75.9752 3.07134 76.2038 3.8142 75.5752 3.98563C75.5181 2.89992 74.7752 1.98563 73.8609 1.35706C72.7752 1.52848 72.4895 1.52848 71.9752 2.49991C72.2038 3.29991 72.0324 4.72849 72.0895 5.47135C71.8609 7.0142 71.9181 8.72848 71.7466 10.0999C71.4038 10.557 71.9752 11.2428 71.1752 11.2428C70.0895 9.92848 69.2324 8.67134 68.2038 7.29991C67.6895 5.52848 68.0895 3.81419 67.7466 2.15705C67.2895 1.12848 66.0324 1.18563 65.1181 0.842773C64.4324 1.12849 63.8038 1.58563 63.7466 2.32849C63.0038 3.18563 63.4038 4.27134 63.1752 5.35706C63.2324 5.98563 63.6895 7.0142 63.4038 7.4142C63.1181 7.87134 63.2895 8.6142 63.2895 9.12849C63.1181 11.1856 62.4895 13.3571 62.0895 15.3571C61.5181 16.1571 61.9181 17.1856 61.6895 17.9856C61.8609 18.8428 61.8609 19.3571 62.4324 19.8713C63.1752 20.3285 64.4895 20.8999 65.3467 20.3285C65.5181 19.1856 66.2038 18.3285 65.8609 17.1285C66.1467 15.6428 66.3181 14.0428 67.0038 12.6142C67.2324 12.4999 67.3466 12.7856 67.5181 12.8999C68.7181 14.8999 70.3181 16.7856 70.7181 18.7856C70.3752 19.5856 71.5181 20.8999 71.8609 21.4142C72.9467 21.2428 73.5752 21.8142 74.5467 21.1285C75.5181 17.5856 74.6609 14.0428 75.2895 10.2142C75.3467 9.07134 75.8609 7.87134 75.1752 7.12849C75.0609 6.72849 75.2895 6.49992 75.7466 6.32849C77.3466 8.32849 78.9466 5.47134 80.6609 5.92848C81.4038 6.38563 81.0038 7.69991 81.0038 8.67133L79.5181 9.07134C78.3752 9.58563 78.6609 10.9571 78.3752 11.9856C78.5466 13.0142 79.5181 13.6428 80.3181 14.2142C80.5466 16.4999 79.1752 19.0142 81.0038 21.1285C81.2324 21.1285 81.5752 21.1285 81.7466 21.4142C82.4324 21.7571 82.8895 21.4142 83.4038 21.1856C84.6038 19.4713 83.4038 18.4999 84.1467 16.6142L84.0324 16.4428C84.4324 15.1856 83.9752 14.2142 84.7181 13.1285C86.4895 12.4999 88.1467 12.2713 89.3467 10.8428C91.0038 9.98563 92.2038 8.44277 92.6609 6.78563ZM86.7752 7.87134C86.3181 7.81419 84.9466 9.01419 84.3752 7.87134C84.4324 7.07134 83.8609 5.8142 84.5467 5.4142C85.9181 5.47134 87.0609 5.52848 88.4324 6.15705C88.6038 7.18562 87.2324 7.47134 86.7752 7.87134Z" fill="#1D2025"/>
<path d="M152.09 5.92852C151.575 5.35709 152.261 4.15709 152.032 3.6428C151.461 2.72852 151.118 1.35709 149.804 1.29994C148.318 1.6428 146.832 1.75709 145.461 2.27138C143.461 2.27138 140.547 2.95709 138.375 3.35709C137.461 3.18566 135.804 3.6428 134.947 4.21423C134.318 4.67138 134.204 5.75708 134.032 6.38565C134.09 8.72851 132.147 10.1571 132.147 12.2142C131.575 13.3571 132.147 14.1 131.632 15.1857L131.518 15.0714C130.604 13.0142 129.118 15.8142 127.861 15.5857C125.632 15.8714 123.747 14.8428 121.861 13.5285C120.661 12.9571 121.347 11.9857 121.461 11.1857C122.718 8.78567 124.718 7.01423 127.175 6.72852C127.804 7.18566 127.004 8.09994 127.175 8.38565C127.118 9.18565 127.29 10.0428 127.747 10.4999C128.375 10.7285 129.347 11.1857 129.918 11.0714C130.604 10.8999 131.118 10.0428 131.518 9.52851C132.032 8.15708 132.147 7.41423 131.861 6.09994C131.632 4.61423 130.832 3.52853 129.69 2.89995C129.232 3.01424 128.204 2.61423 127.69 2.95708C124.832 3.29994 122.204 4.49994 119.747 6.38565C119.804 7.01423 119.118 7.07138 118.775 7.6428C118.49 8.38566 118.032 9.2428 117.347 9.81423C117.004 7.52851 116.718 5.29994 115.747 3.2428C115.347 2.09994 114.261 1.24281 113.175 1.18567C112.775 1.29995 112.261 1.41423 112.204 1.92852L111.975 1.87137C110.547 3.07137 109.69 5.01424 108.775 6.61424C108.375 7.3571 107.747 8.27138 107.69 8.78566C107.061 10.6142 105.632 10.7857 105.347 12.5571C105.632 14.9571 102.09 16.6714 103.061 19.1857C103.461 20.3285 104.375 20.4428 105.404 20.9C106.547 19.8714 107.061 18.1571 107.69 16.9C107.918 15.4142 109.975 15.9285 110.718 15.5285C111.175 15.2428 111.918 15.4714 112.318 15.2999C112.49 15.2999 113.232 15.5857 113.232 16.0428C112.89 17.1857 113.061 18.3285 113.29 19.6999C113.975 20.8428 114.832 21.0714 116.032 21.1285C116.604 20.3285 116.89 19.9857 116.947 19.1285C117.404 18.2714 116.547 17.2999 116.89 16.3857C117.004 16.0428 116.775 14.8428 117.347 14.4999C117.975 15.3571 118.775 16.5571 119.632 17.2428C120.204 17.4142 120.318 18.2142 121.004 18.2714C122.718 19.9285 125.632 20.8428 127.918 21.1857C130.147 21.2428 131.29 19.2428 132.032 17.4714C132.832 18.5 133.861 19.6428 135.118 20.0999C137.461 21.0714 139.69 19.9857 141.918 19.8714C142.547 19.4714 143.804 18.7857 143.747 17.7571C143.918 17.0142 143.861 15.9857 143.004 15.5285C141.861 15.0142 140.947 15.4714 139.861 15.9285C139.175 15.4714 138.204 16.1571 137.461 16.0999C136.718 15.9857 135.69 15.9857 135.518 15.0714C135.861 14.3285 136.718 14.2714 137.518 14.3285C138.775 13.6428 140.09 14.0428 141.69 13.8142C142.718 13.6999 143.69 14.0428 144.661 13.6428C144.604 13.1285 145.575 12.0999 144.832 11.8142C145.118 11.0714 144.204 10.2714 143.747 9.58566L137.861 9.7571L137.347 9.47138C137.347 8.67138 137.861 7.98565 138.375 7.52851C140.775 6.95708 143.118 6.89994 145.461 6.67137V6.72852L146.147 6.61424C147.518 7.01424 149.061 6.21423 150.318 6.38565C150.661 6.78565 151.175 6.78566 151.518 6.72852C151.804 6.67137 152.147 6.32852 152.09 5.92852ZM112.947 10.2714C112.432 10.1 111.175 11.0142 110.947 10.0428C111.575 8.89995 112.375 7.81424 112.775 6.61424C113.29 6.5571 113.232 7.18567 113.461 7.47138C113.29 8.38567 113.804 9.52852 112.947 10.2714Z" fill="#1D2025"/>
</g>
<defs>
<clipPath id="clip0_5148_64423">
<rect width="152" height="24" fill="white" transform="translate(0.146667 0.5)"/>
</clipPath>
</defs>
</svg>
