<svg width="119" height="31" viewBox="0 0 119 31" fill="none" xmlns="http://www.w3.org/2000/svg">
<path d="M56.8948 17.2564C57.0002 15.7283 58.2121 14.5164 60.0739 14.5164C62.0411 14.5164 62.9721 15.7283 62.9721 17.2564H56.8948ZM60.1969 11.267C56.2098 11.267 52.5388 14.007 52.5388 18.9426C52.5388 23.8782 56.1922 26.5129 60.3374 26.5129C63.4639 26.5129 65.6067 25.0726 66.7835 23.4567L63.6395 21.4368C63.1126 22.0867 62.1817 22.877 60.4604 22.877C58.5634 22.877 57.3163 21.7881 56.9826 20.6112C56.9123 20.3302 56.9123 20.1721 56.9123 20.1721H67.2929C67.3105 19.9965 67.328 19.5398 67.328 19.048C67.328 13.9895 64.184 11.2494 60.1969 11.2494M114.243 26.0386H109.729V18.2225C109.729 15.904 108.745 15.2014 107.48 15.2014C106.145 15.2014 104.828 16.2026 104.828 18.2752V26.0386H100.314V11.7412H104.652V13.726H104.705C105.144 12.8478 106.655 11.3372 108.991 11.3372C111.503 11.3372 114.225 12.8302 114.225 17.2037V26.0562L114.243 26.0386ZM95.3608 9.72131C93.9205 9.72131 92.7613 8.63232 92.7613 7.13934C92.7613 5.64637 93.9205 4.53981 95.3608 4.53981C96.8011 4.53981 97.9604 5.62881 97.9604 7.13934C97.9604 8.64988 96.8011 9.72131 95.3608 9.72131ZM97.6091 26.0386H93.095V11.7237H97.6091V26.0562V26.0386ZM116.438 0.5H90.8643C89.6348 0.5 88.6512 1.48361 88.6512 2.71311V28.2869C88.6512 29.5164 89.6348 30.5 90.8643 30.5H116.438C117.668 30.5 118.651 29.4988 118.651 28.2869V2.71311C118.651 1.48361 117.668 0.5 116.438 0.5ZM47.7262 18.2049L53.4873 26.0562H47.8842L43.1945 19.1885H43.1067V26.0562H38.5927V4.92623H43.1067V17.5375H43.1945L47.7789 11.7237H53.259L47.7262 18.1874V18.2049ZM76.4615 22.5433C74.6348 22.5433 72.9662 21.2084 72.9662 18.8372C72.9662 16.466 74.5646 15.1838 76.4615 15.1838C78.3585 15.1838 80.0095 16.6066 80.0095 18.8724C80.0095 21.1382 78.2355 22.5609 76.4615 22.5609M79.7109 13.2693H79.6582C78.8679 12.356 77.3749 11.3372 75.2847 11.3372C71.7016 11.3372 68.5224 14.1475 68.5224 18.8372C68.5224 24.1066 72.1934 26.4602 75.3374 26.4602C77.9369 26.4602 79.4826 25.1429 80.0271 24.1944H80.0798V26.0738H84.2074V4.92623H79.6934V13.2518L79.7109 13.2693ZM20.3784 7.15691C20.3784 8.64988 19.2191 9.73888 17.7789 9.73888C16.3386 9.73888 15.1793 8.64988 15.1793 7.15691C15.1793 5.66393 16.3386 4.55738 17.7789 4.55738C19.2191 4.55738 20.3784 5.64637 20.3784 7.15691ZM5.273 21.7881H13.4756V26.0738H0.495483V4.92623H5.273V21.7705V21.7881ZM15.513 11.7412H20.0271V26.0738H15.513V11.7237V11.7412ZM36.362 17.2213V26.0738H31.8479V18.2576C31.8479 15.9391 30.8643 15.2365 29.5997 15.2365C28.2648 15.2365 26.9475 16.2377 26.9475 18.3103V26.0738H22.4334V11.7412H26.7718V13.726H26.8245C27.2636 12.8478 28.7917 11.3372 31.1102 11.3372C33.6219 11.3372 36.3444 12.8302 36.3444 17.2037" fill="#1D2025"/>
</svg>
