<svg width="67" height="67" viewBox="0 0 67 67" fill="none" xmlns="http://www.w3.org/2000/svg">
<g clip-path="url(#clip0_5148_64403)">
<path d="M48.9143 56.3917C49.3838 56.1114 49.6524 55.7397 49.7359 55.2559C49.8193 54.7721 49.685 54.2335 49.3382 53.6533C48.9874 53.0664 48.5636 52.7313 48.0798 52.6596C47.6651 52.5996 47.1943 52.7235 46.6818 53.0299L46.1107 53.3716L48.1802 56.8299L48.913 56.3904L48.9143 56.3917Z" fill="#1D2025"/>
<path d="M66.1054 36.3852C66.1054 33.116 63.4543 30.4649 60.1851 30.4649C60.1238 30.4649 60.0612 30.4675 59.9999 30.4701C62.2729 29.4047 63.8403 26.4406 63.8403 22.1204C63.0866 21.6744 62.3576 21.1163 61.6652 20.4995C61.6339 19.97 61.6652 19.168 61.6652 19.168C61.6652 19.168 61.9325 19.4784 62.6328 19.4784C63.6512 19.4784 63.9903 18.6699 63.9903 18.1C63.9903 17.3567 63.4348 16.9016 63.3265 16.7647C63.2183 16.6278 59.8395 13.1265 59.717 12.9817C59.5944 12.837 59.168 12.3101 58.4755 12.3101C57.7831 12.3101 57.0463 13.1186 57.0463 14.527C57.0463 14.6769 57.002 14.866 56.9381 15.0616C56.5534 14.5439 56.2326 14.1084 55.9861 13.8046C55.115 12.7261 51.0243 7.48911 43.4948 4.62545C43.4413 3.14276 42.3016 0.820277 40.176 0.820277C38.3582 0.820277 36.4817 2.14257 35.6497 2.85327C35.5962 2.84935 35.5415 2.84544 35.488 2.84153C35.1503 1.90784 34.0314 0.00134277 33.2085 0.00134277C32.2879 0.00134277 30.9369 2.01738 30.5418 2.84675C30.4766 2.85196 30.4114 2.85587 30.3462 2.86109C29.5181 2.153 27.6338 0.818973 25.8095 0.818973C23.6643 0.818973 22.522 3.18449 22.4881 4.66457C15.0251 7.53736 10.9669 12.73 10.0997 13.8032C9.85329 14.1084 9.52989 14.5479 9.14259 15.0682C9.07608 14.8686 9.03175 14.6769 9.03175 14.5257C9.03175 13.1173 8.29496 12.3088 7.60252 12.3088C6.91008 12.3088 6.48366 12.8357 6.36108 12.9804C6.2385 13.1251 2.85975 16.6265 2.75151 16.7634C2.64328 16.9003 2.06559 17.5289 2.08776 18.0987C2.10993 18.6686 2.42681 19.4771 3.44526 19.4771C4.14553 19.4771 4.41285 19.1667 4.41285 19.1667C4.41285 19.1667 4.44546 19.9779 4.41285 20.506C3.72302 21.1189 2.99798 21.6744 2.24685 22.1191C2.24685 26.4393 3.8143 29.4034 6.08723 30.4688C6.03246 30.4675 5.9777 30.4649 5.92293 30.4649C2.65371 30.4649 0.00260925 33.1147 0.00260925 36.3852C0.00260925 39.6557 2.65241 42.3055 5.92293 42.3055C6.36891 42.3055 6.80315 42.2547 7.22044 42.1608C5.79122 43.1714 4.9136 44.9084 4.9136 46.6075C4.9136 51.1847 12.1067 59.9465 23.5196 63.324C23.8508 64.2577 24.7688 66.2672 27.1057 66.2672C28.9952 66.2672 30.0632 64.8784 30.1493 64.8784C30.3005 64.8784 30.9513 66.9987 33.1955 66.9987C35.4397 66.9987 36.0566 64.6984 36.2065 64.6984C36.3226 64.6984 37.0437 66.2789 39.3897 66.2789C41.5452 66.2789 42.5702 64.1273 42.8819 63.2275C54.1148 59.7848 61.1775 51.1404 61.1775 46.6062C61.1775 44.9032 60.2973 43.1623 58.8628 42.153C59.2879 42.2508 59.7313 42.3029 60.1864 42.3029C63.4556 42.3029 66.1067 39.6531 66.1067 36.3826L66.1054 36.3852ZM65.752 36.3852C65.752 39.4588 63.26 41.9508 60.1864 41.9508C57.1128 41.9508 54.6208 39.4588 54.6208 36.3852C54.6208 33.3116 57.1128 30.8196 60.1864 30.8196C63.26 30.8196 65.752 33.3116 65.752 36.3852ZM60.013 13.875C60.2399 14.1527 62.8023 16.7738 62.9966 16.9642C63.1922 17.1559 63.5378 17.4337 63.5378 18.0909C63.5378 18.7481 63.1009 19.0624 62.6132 19.0624C62.1255 19.0624 61.7969 18.756 61.6143 18.5877C60.3155 17.3802 59.0493 15.5272 58.9958 15.4542C58.9424 15.3824 58.8211 15.2742 58.9189 15.2325C59.9869 14.78 59.94 13.875 60.0117 13.875H60.013ZM58.5877 12.6766C59.0689 12.6766 59.567 13.1825 59.567 13.6507C59.567 14.6391 58.2317 15.0682 58.2317 15.1112C58.2317 15.1542 59.5383 17.4259 61.3366 18.9568C61.3366 18.9568 61.3027 19.6036 61.3131 20.1748C59.7783 18.7403 58.439 17.0516 57.4271 15.711C57.4062 15.4398 57.3762 15.0277 57.3762 14.8426C57.3762 13.1838 58.1078 12.6766 58.589 12.6766H58.5877ZM40.1382 1.23235C41.0484 1.23235 41.5152 1.81526 41.5152 2.1517C41.5152 2.48814 41.3757 2.64723 41.1449 2.64723C40.9141 2.64723 40.918 2.51291 40.918 2.32904C40.918 2.14518 40.7067 1.97304 40.3794 1.97304C40.0521 1.97304 39.8409 2.32383 39.8409 2.58855C39.8409 2.85327 40.1734 3.41139 41.0875 3.41139C41.54 3.41139 42.2559 3.08408 42.2559 2.30557C42.7802 2.99671 43.0188 3.87172 43.0592 4.45984C41.0367 3.72827 38.7742 3.17145 36.2678 2.90804C36.8729 2.39946 38.5316 1.22974 40.1395 1.22974L40.1382 1.23235ZM31.3594 2.29514C31.4285 2.36947 31.5342 2.45945 31.9058 2.45945C32.563 2.45945 33.0755 1.91436 33.0755 1.57531C33.0755 1.23626 32.8447 1.1202 32.5774 1.1202C32.3101 1.1202 32.2983 1.00415 32.4196 0.881566C32.6778 0.622063 32.9334 0.443411 33.1446 0.443411C33.8449 0.443411 34.8373 2.35121 34.9925 2.80371C34.3574 2.76459 33.7093 2.74373 33.0442 2.74373C32.3792 2.74373 31.7128 2.7659 31.0699 2.80632C31.1234 2.69678 31.2251 2.51291 31.3594 2.29384V2.29514ZM23.7308 2.30818C23.7308 3.08669 24.4454 3.4127 24.8992 3.4127C25.8134 3.4127 26.1459 2.85457 26.1459 2.58985C26.1459 2.32513 25.9346 1.97435 25.6073 1.97435C25.28 1.97435 25.0688 2.14778 25.0688 2.33035C25.0688 2.51291 25.074 2.64853 24.8432 2.64853C24.6123 2.64853 24.4728 2.48944 24.4728 2.153C24.4728 1.81656 24.9397 1.23366 25.8499 1.23366C27.4695 1.23366 29.14 2.41902 29.7346 2.92238C27.2204 3.19362 24.954 3.76087 22.9288 4.50287C22.9614 3.91345 23.1988 3.01627 23.7347 2.30948L23.7308 2.30818ZM7.49038 12.6766C7.97156 12.6766 8.70313 13.1838 8.70313 14.8426C8.70313 15.0316 8.67183 15.4529 8.65097 15.7241C7.63904 17.0659 6.29979 18.7521 4.76625 20.1839C4.77668 19.6101 4.74277 18.9581 4.74277 18.9581C6.54104 17.4272 7.84768 15.1555 7.84768 15.1125C7.84768 15.0695 6.51235 14.6404 6.51235 13.652C6.51235 13.1825 7.01049 12.6779 7.49168 12.6779L7.49038 12.6766ZM3.46482 19.0624C2.97711 19.0624 2.54026 18.7299 2.54026 18.0909C2.54026 17.4519 2.88713 17.1559 3.08143 16.9642C3.27574 16.7725 5.83947 14.1527 6.06507 13.875C6.13679 13.875 6.08854 14.78 7.15785 15.2325C7.25565 15.2742 7.13437 15.3811 7.08091 15.4542C7.02744 15.5259 5.76253 17.3789 4.46241 18.5877C4.27984 18.7573 3.95123 19.0624 3.46352 19.0624H3.46482ZM2.68762 22.3512C5.48868 20.6286 7.74206 17.6097 9.20388 15.6224C12.5344 11.0961 20.1891 3.15711 33.0416 3.15711C45.8942 3.15711 53.5515 11.0961 56.882 15.6224C58.3438 17.6097 60.5972 20.6273 63.3983 22.3512C63.3983 27.0874 61.4435 30.4662 57.8339 30.4662C54.4408 30.4662 51.911 27.0692 50.4414 25.0519C48.737 22.7124 42.818 14.1149 33.0416 14.1149C23.2653 14.1149 17.3463 22.7137 15.6432 25.0519C14.1736 27.0692 11.6437 30.4662 8.25063 30.4662C4.64106 30.4662 2.68762 27.0874 2.68762 22.3512ZM33.0038 54.0823L32.0962 53.5007C32.4092 53.5163 32.7234 53.5241 33.0416 53.5241C33.3298 53.5241 33.6167 53.5176 33.901 53.5046L33.0025 54.0823H33.0038ZM33.0416 53.159C32.5044 53.159 31.9723 53.1316 31.4442 53.0821L20.5659 46.1029V19.8853C20.8137 19.6584 21.0719 19.4315 21.3379 19.2059V25.5422H24.9697L24.4063 23.8678L27.0626 24.5172H29.7333V23.8678H28.3615V20.7198H29.6459L30.0789 19.9113L30.5118 20.7198H31.7819V23.8678H30.4244V24.5172H33.7745V23.8678H32.4027V20.7198H33.6519L34.1135 19.9113L34.5543 20.7198H35.8036V23.8678H34.4539V24.5172H37.7388V23.8678H36.3669V20.7198H37.6449L38.0778 19.9113L38.5108 20.7198H39.7665V23.8678H38.3947V24.5172H40.0482V25.5422H44.744V19.2072C44.9696 19.3976 45.19 19.5892 45.4026 19.7822V46.1081L34.5426 53.0912C34.0457 53.1355 33.5437 53.1603 33.039 53.1603L33.0416 53.159ZM43.9238 18.5395C44.2068 18.7586 44.4806 18.9816 44.7466 19.2059H21.3379C21.6039 18.9816 21.8778 18.7586 22.1608 18.5395H43.9225H43.9238ZM22.7189 18.1209C25.4443 16.1388 28.9248 14.5257 33.0429 14.5257C37.1611 14.5257 40.6415 16.1388 43.367 18.1209H22.7189ZM28.0798 20.8111V21.5427L27.137 24.1612L25.3374 23.7283L28.0811 20.8111H28.0798ZM0.354699 36.3852C0.354699 33.3116 2.84671 30.8196 5.92032 30.8196C8.99393 30.8196 11.4859 33.3116 11.4859 36.3852C11.4859 39.4588 8.99393 41.9508 5.92032 41.9508C2.84671 41.9508 0.354699 39.4588 0.354699 36.3852ZM11.8406 36.3852C11.8406 33.9102 10.3214 31.7911 8.16326 30.907C12.1862 30.8326 15.2976 26.3089 15.9614 25.3114C16.2613 24.8615 17.7166 22.5977 20.1682 20.2582V46.348L30.4179 52.9556C22.0447 51.6789 15.1059 44.761 13.9414 43.2288C13.1721 42.2182 12.1223 41.2793 9.97065 41.2793C9.68507 41.2793 9.40731 41.304 9.13868 41.3523C10.7635 40.2973 11.8406 38.4678 11.8406 36.3852ZM27.1448 65.8694C25.1561 65.8694 24.3737 64.2563 24.079 63.4844C25.4587 63.8664 26.8983 64.169 28.3914 64.3763C28.3184 64.495 28.1984 64.6241 27.935 64.6241C27.7472 64.6241 27.6573 64.5263 27.5347 64.5263C27.4121 64.5263 27.253 64.6384 27.253 64.8223C27.253 65.0062 27.4982 65.2018 27.8881 65.2018C28.3732 65.2018 28.947 64.6867 29.1347 64.4715C29.3447 64.4963 29.5546 64.5198 29.7659 64.5406C29.3486 65.237 28.1815 65.8707 27.1448 65.8707V65.8694ZM33.1733 66.6101C31.5642 66.6101 30.7218 65.0401 30.5209 64.6045C31.3477 64.6658 32.1888 64.6997 33.0442 64.6997C33.6076 64.6997 34.1631 64.6841 34.7134 64.6554C34.656 64.7727 34.4982 64.9488 34.004 64.9488C33.6754 64.9488 33.4224 65.1222 33.4224 65.3856C33.4224 65.6491 33.7184 65.7977 33.9206 65.7977C34.5374 65.7977 35.0329 64.9292 35.1711 64.6319C35.3693 64.6189 35.5675 64.6058 35.7645 64.5902C35.5623 65.0975 34.7708 66.6114 33.1733 66.6114V66.6101ZM39.3623 65.8551C37.5445 65.8551 36.7607 64.8262 36.5664 64.5145C36.7907 64.4911 37.0137 64.465 37.2354 64.4363C37.4167 64.6749 37.9891 65.2279 38.516 65.2279C38.958 65.2279 39.0989 65.0062 39.0989 64.8523C39.0989 64.6984 39.0402 64.5419 38.8772 64.5419C38.7142 64.5419 38.6464 64.6332 38.4729 64.6332C38.1639 64.6332 38.0126 64.4598 37.9357 64.3398C39.4653 64.1155 40.9389 63.7934 42.3472 63.3879C42.1634 64.0164 41.1997 65.8538 39.3636 65.8538L39.3623 65.8551ZM60.7798 46.6232C60.7798 52.0949 49.805 64.2237 33.0416 64.2237C16.2783 64.2237 5.30612 52.0949 5.30612 46.6219C5.30612 43.3448 8.15674 41.6835 10.0711 41.6835C11.9854 41.6835 12.4118 42.2247 14.1044 44.0177C17.4023 47.5112 23.4244 52.6843 31.156 53.4316L32.2736 54.1514C22.4529 53.7667 15.1842 46.172 13.3924 44.2772C12.387 43.2131 11.9124 42.3694 9.99152 42.3694C7.626 42.3694 5.93205 44.4794 5.93205 46.588C5.93205 51.0452 15.8375 63.5339 33.0429 63.5339C50.2484 63.5339 60.1551 51.0452 60.1551 46.588C60.1551 44.4794 58.4612 42.3694 56.0957 42.3694C54.1748 42.3694 53.7015 43.2144 52.6947 44.2772C50.8978 46.1772 43.5965 53.8084 33.7367 54.154L34.8308 53.4394C42.6106 52.7274 48.6692 47.5256 51.9801 44.0164C53.6728 42.2234 54.0144 41.6822 56.0135 41.6822C58.0126 41.6822 60.7784 43.3422 60.7784 46.6206L60.7798 46.6232ZM32.5826 55.7853L32.3714 61.8621L30.9995 61.8139L31.2108 55.7371L32.5826 55.784V55.7853ZM29.1465 55.3811L27.6025 61.2623L26.6766 61.0184L24.7962 56.4439L23.7934 60.2621L22.6719 59.9674L24.2159 54.0862L25.2631 54.3613L27.0731 58.8655L28.0589 55.0942L29.1465 55.3798V55.3811ZM17.238 56.2352C17.298 56.4517 17.4858 56.6486 17.7949 56.822C18.0713 56.9772 18.3699 57.0007 18.6907 56.8938C19.0193 56.7829 19.2723 56.5625 19.4653 56.2183L21.3366 52.8878L22.4477 53.5124L20.7146 56.5951C20.339 57.2641 19.8839 57.7192 19.3636 57.9487C19.1119 58.0596 18.8485 58.1157 18.5786 58.1157C18.1769 58.1157 17.7518 57.9918 17.315 57.7453C16.6264 57.3593 16.1792 56.8964 15.9849 56.3708C15.7879 55.8388 15.8466 55.2872 16.1596 54.7304L18.1887 51.1195L19.3858 51.7924L17.5171 55.1177C17.255 55.5845 17.1611 55.9601 17.238 56.2339V56.2352ZM37.7075 61.5544L36.3447 61.72L35.7345 56.6864L34.034 56.8925L33.9114 55.8897L38.662 55.3133L38.7768 56.3174L37.0959 56.5208L37.7062 61.5544H37.7075ZM41.8843 56.6929L43.6656 56.0996L43.9851 57.0581L42.2038 57.6514L42.7358 59.2462L44.8223 58.5499L45.1418 59.5084L41.7526 60.6377L39.8291 54.8686L42.9823 53.8176L43.3018 54.776L41.45 55.3928L41.883 56.6903L41.8843 56.6929ZM44.3998 53.1864L46.2632 52.0714C47.1252 51.5564 47.9402 51.3594 48.6861 51.4872C49.4646 51.6203 50.1036 52.0949 50.5861 52.9008C51.1208 53.7941 51.242 54.6665 50.9473 55.4919C50.6865 56.2209 50.1388 56.8403 49.3173 57.3319L47.5229 58.4065L44.3998 53.189V53.1864ZM56.1191 41.2819C53.9675 41.2819 52.9177 42.2208 52.1483 43.2314C50.9773 44.7702 43.976 51.7454 35.5493 52.9751L45.7925 46.292V20.1396C48.3197 22.5207 49.8206 24.8562 50.1258 25.3127C50.7922 26.3115 53.9101 30.8483 57.9422 30.9083C55.7853 31.7924 54.2661 33.9115 54.2661 36.3865C54.2661 38.4717 55.3458 40.3051 56.9759 41.3588C56.6994 41.3079 56.4138 41.2806 56.1191 41.2806V41.2819Z" fill="#1D2025"/>
<path d="M44.748 26.4132H21.3392V27.982H44.748V26.4132Z" fill="#1D2025"/>
<path d="M39.7365 31.2447L40.1017 31.7793V33.382H39.1445V31.7793L39.5201 31.2447L38.619 29.6994L37.7622 31.2447L38.1235 31.7793V33.382H37.1702V31.7793L37.5262 31.2447L36.6499 29.6994L35.7723 31.2447L36.1335 31.7793V34.8699H38.0217V35.7814C37.997 35.7814 37.9709 35.7788 37.9461 35.7788C36.5443 35.7788 35.8414 36.6264 35.2794 36.6264C35.1594 36.6264 34.9912 36.6121 34.9912 36.4478C34.9912 36.0435 36.1035 35.8127 36.1035 35.4085C36.1035 35.2376 34.7538 34.3418 34.7538 34.2779C34.7538 33.9792 34.9051 33.7158 34.9051 33.5176V32.3283C34.9051 31.2747 35.8727 30.0593 36.0096 30.0137H34.6886L33.9166 28.2715L32.9347 30.0137H32.0036L31.0751 28.2715L30.2575 30.0137H28.9196C28.9196 30.0137 30.98 32.9973 30.98 34.0471C30.98 34.8777 29.7998 34.7838 29.7998 36.1935C29.7998 37.3684 30.7635 37.7766 30.7635 38.3738C30.7635 38.5225 30.6957 38.6438 30.6631 38.739C30.6292 38.8355 30.0084 40.0821 29.9654 40.1591C29.9224 40.236 29.8024 40.4616 29.5559 40.4616C29.3095 40.4616 28.9378 40.1252 28.9378 37.015C28.9378 36.1648 29.0069 36.0344 29.1034 35.8505C29.2012 35.6667 29.998 34.2961 29.998 34.1318C29.998 33.9675 28.8792 34.2831 28.0276 31.0569C27.9272 30.6787 27.9559 30.3788 27.8112 30.3788C27.6312 30.3788 27.4917 30.9852 27.2022 30.9852C26.8357 30.9852 26.6336 30.6148 26.1289 30.6148C25.4574 30.6148 25.4065 32.6022 24.5119 32.6022C24.0999 32.6022 23.6982 32.2371 23.2757 32.2371C23.011 32.2371 23.7856 32.5591 23.9877 34.8412C24.006 35.0525 24.0034 35.1085 24.0686 35.1085C24.2863 35.1085 25.2344 33.6428 26.6858 33.6428C27.0157 33.6428 27.3521 33.7875 27.3521 34.0418C27.3521 34.7108 26.2698 35.072 26.2698 35.3459C26.2698 35.7162 27.1839 35.5115 27.2348 36.3109C27.2595 36.7112 27.3939 41.7852 27.4004 42.1321C27.4082 42.4789 27.4225 44.3411 28.8087 44.3411H29.8911C29.8911 45.9007 29.6094 46.9687 29.6094 47.9142C29.6094 49.213 30.8509 49.6759 30.8509 50.9095C30.8509 51.3529 30.7348 51.6176 30.7348 51.8719C30.7348 52.1262 30.8209 52.5578 31.5055 52.5578C32.4613 52.5578 34.064 51.7976 34.064 51.0399C34.064 50.5274 32.7 49.1921 32.7 48.4188C32.7 47.9063 33.9805 47.7433 33.9805 47.0118C33.9805 46.4119 32.4692 45.1992 32.4979 43.676C32.4979 43.5639 32.7182 43.8091 32.8734 43.9903C33.0286 44.1703 36.5404 47.9063 36.6342 47.9937C36.7281 48.0811 37.0163 48.3471 37.0959 48.3471C37.2863 48.3471 37.4349 48.2154 37.4349 47.7694C37.4349 47.1552 37.225 47.3143 37.225 45.979C37.225 44.8601 37.4349 44.6645 37.4349 43.9721C37.4349 43.2796 37.1363 43.127 36.6551 43.127C36.4439 43.127 36.1205 43.1362 36.1205 42.7802C36.1205 42.4242 36.3461 41.9665 36.3461 41.5726C36.3461 41.394 36.26 41.2023 35.8936 41.2023C35.5271 41.2023 35.3067 41.6835 34.9025 41.6835C34.7825 41.6835 34.6286 41.6861 34.6286 41.5752C34.6286 41.2792 35.5389 39.8644 35.668 39.8644C35.8701 39.8644 38.0165 40.8359 38.0165 41.0914H38.0257V48.2428C38.0257 48.4592 38.2278 48.6249 38.6216 48.6249C39.0154 48.6249 39.2241 48.4801 39.2241 48.2571V40.7876C39.511 40.5555 39.777 40.1747 39.777 39.5801C39.777 39.3349 39.7874 39.0963 39.6348 38.9241C39.9582 38.7807 40.0612 38.4586 40.0612 38.1026C40.0612 37.4741 39.7587 36.7438 39.2241 36.2717V34.8686H41.1449V31.778L41.467 31.2434L40.6103 29.6981L39.7392 31.2434L39.7365 31.2447ZM31.8341 32.2214C31.6802 32.2214 31.4533 32.0271 31.4533 31.7454C31.4533 31.1638 31.3503 31.0699 31.4155 31.0699C31.6946 31.0699 32.104 31.6854 32.104 31.9123C32.104 32.1393 31.9071 32.2201 31.8341 32.2201V32.2214ZM32.7104 35.2389C32.6139 35.2389 32.1379 33.9727 32.1379 33.8723H33.2842C33.2842 33.9688 32.8082 35.2389 32.7117 35.2389H32.7104ZM33.8567 31.7454C33.8567 32.0271 33.6311 32.2214 33.4772 32.2214C33.4055 32.2214 33.2072 32.1393 33.2072 31.9137C33.2072 31.6881 33.6167 31.0712 33.8958 31.0712C33.961 31.0712 33.8567 31.1638 33.8567 31.7467V31.7454ZM38.0243 38.7729C37.9957 38.7755 37.967 38.7768 37.9344 38.7768C36.646 38.7768 36.1139 37.8327 36.1139 37.7218C36.1139 37.611 36.436 37.3841 37.1011 37.3841C37.4727 37.3841 37.8053 37.5562 38.0257 37.7075V38.7742L38.0243 38.7729Z" fill="#1D2025"/>
<path d="M5.92032 31.512C3.22879 31.512 1.04714 33.6936 1.04714 36.3851C1.04714 39.0767 3.22879 41.2583 5.92032 41.2583C8.61185 41.2583 10.7935 39.0767 10.7935 36.3851C10.7935 33.6936 8.61185 31.512 5.92032 31.512ZM8.61837 32.7573C9.20779 33.2189 9.67594 33.8266 9.96804 34.5282C9.87285 34.8425 9.06956 37.165 6.3324 37.165C6.27241 37.165 6.21503 37.1623 6.15635 37.1597C6.20199 36.0226 6.69622 34.7721 7.17741 33.9231C8.00286 33.7601 8.61967 33.2216 8.61967 32.7912C8.61967 32.7808 8.61837 32.7704 8.61706 32.7599L8.61837 32.7573ZM4.54978 32.1092L4.51066 32.0597C4.95403 31.9097 5.42739 31.8262 5.92162 31.8262C6.67796 31.8262 7.38866 32.0179 8.00938 32.3544C8.0159 32.3635 8.15935 32.5708 8.15935 32.7873C8.15152 32.9451 7.63513 33.4641 6.77968 33.5045C6.00769 33.541 4.86927 33.1876 4.43894 32.7782C4.36591 32.7091 4.27854 32.6047 4.27854 32.5043C4.27854 32.387 4.44154 32.1979 4.55108 32.1092H4.54978ZM1.53876 36.2091C1.53876 35.7005 1.62613 35.2128 1.78523 34.759C1.96127 35.0576 2.25989 35.5088 2.69023 35.9652C2.61068 36.3682 2.56243 36.8063 2.56243 37.2797C2.56243 38.0269 2.66023 38.7128 2.77108 39.2553C2.00822 38.4664 1.53746 37.3932 1.53746 36.2091H1.53876ZM2.01865 34.2178C2.42159 33.4289 3.05666 32.7769 3.83517 32.3557C3.82343 32.4039 3.81561 32.4548 3.81561 32.5056C3.81561 32.6973 3.90037 32.8838 4.06468 33.0599C3.77127 33.4002 3.1662 34.21 2.82063 35.4228C2.30814 34.8203 2.04734 34.2791 2.01865 34.2178ZM5.92162 40.5907C4.97098 40.5907 4.09076 40.2868 3.37224 39.7717C3.22358 39.2266 3.02667 38.3073 3.02667 37.2797C3.02667 35.3158 3.9408 33.8866 4.42459 33.3467C5.02314 33.7249 5.95031 33.9609 6.62841 33.9714C6.2685 34.6651 5.69211 35.9874 5.69211 37.3293C5.69211 38.9697 6.05333 40.0221 6.31805 40.5737C6.18765 40.5854 6.05594 40.592 5.92293 40.592L5.92162 40.5907ZM6.80054 40.502C6.58147 40.086 6.20069 39.1523 6.15765 37.6201C6.21634 37.6227 6.27371 37.6253 6.3337 37.6253C8.67966 37.6253 9.76201 36.0917 10.1884 35.2102C10.2628 35.531 10.3045 35.8648 10.3045 36.2078C10.3045 38.3268 8.80093 40.0938 6.80185 40.5007L6.80054 40.502Z" fill="#1D2025"/>
<path d="M60.1851 41.2583C62.8766 41.2583 65.0583 39.0767 65.0583 36.3851C65.0583 33.6936 62.8766 31.512 60.1851 31.512C57.4936 31.512 55.3119 33.6936 55.3119 36.3851C55.3119 39.0767 57.4936 41.2583 60.1851 41.2583ZM62.8075 39.7209C62.076 40.2686 61.1684 40.592 60.1851 40.592C60.0717 40.592 59.9595 40.5867 59.8474 40.5776C60.1121 40.0273 60.4746 38.9737 60.4746 37.3293C60.4746 35.9874 59.8982 34.6651 59.5383 33.9714C60.2164 33.9609 61.1423 33.7262 61.7408 33.3467C62.2233 33.8879 63.1388 35.3171 63.1388 37.2797C63.1388 38.276 62.9523 39.1706 62.8062 39.7196L62.8075 39.7209ZM64.5667 36.2104C64.5667 37.3553 64.1272 38.3973 63.4087 39.1771C63.513 38.6476 63.6017 37.9917 63.6017 37.281C63.6017 36.8077 63.5534 36.3695 63.4739 35.9665C63.8742 35.5414 64.1624 35.1202 64.3411 34.8242C64.4871 35.2598 64.5667 35.7266 64.5667 36.2117V36.2104ZM62.3381 32.3948C63.1048 32.8277 63.7269 33.485 64.1181 34.2778C64.0346 34.4447 63.7803 34.9116 63.3448 35.4241C62.9992 34.2113 62.3941 33.4015 62.1007 33.0612C62.265 32.8851 62.3498 32.6999 62.3498 32.5069C62.3498 32.4691 62.3446 32.4313 62.3381 32.3948ZM58.1339 32.3387C58.7455 32.014 59.4431 31.8288 60.1851 31.8288C60.6963 31.8288 61.1866 31.9175 61.6417 32.0779L61.6143 32.1105C61.7239 32.2005 61.8869 32.3883 61.8869 32.5056C61.8869 32.606 61.7995 32.7104 61.7265 32.7795C61.2962 33.1903 60.1577 33.5437 59.3857 33.5058C58.5303 33.4654 58.0126 32.9451 58.0061 32.7886C58.0061 32.5682 58.156 32.3557 58.1573 32.3544L58.1339 32.3374V32.3387ZM57.5497 32.7104C57.5471 32.7378 57.5444 32.7638 57.5444 32.7912C57.5444 33.2229 58.1613 33.7601 58.9867 33.9231C59.4679 34.7734 59.9621 36.0226 60.0078 37.1597C59.9491 37.1623 59.8917 37.165 59.8317 37.165C56.9107 37.165 56.1922 34.5204 56.1856 34.4943L56.1465 34.5047C56.4491 33.7901 56.9368 33.172 57.5484 32.7104H57.5497ZM59.833 37.6279C59.893 37.6279 59.9504 37.6253 60.0091 37.6227C59.9647 39.1653 59.5787 40.1029 59.361 40.5137C57.3358 40.1277 55.8036 38.349 55.8036 36.2104C55.8036 35.8374 55.8505 35.4749 55.9379 35.1281C56.3356 35.99 57.4088 37.6266 59.833 37.6266V37.6279Z" fill="#1D2025"/>
<path d="M56.2 22.6798C56.4438 22.7058 56.6616 22.6263 56.8677 22.4385C57.1089 22.2168 57.2197 21.9964 57.1963 21.7839C57.1767 21.6105 57.0594 21.407 56.8494 21.1762L56.513 20.8085L55.2285 21.9847L55.5506 22.3368C55.7384 22.5415 55.9509 22.6537 56.2 22.6798Z" fill="#1D2025"/>
<path d="M14.8934 24.8823C16.7999 22.2442 22.7867 13.4081 33.0442 13.4081C43.3018 13.4081 49.2873 22.2442 51.1938 24.8823C53.1003 27.5204 55.3719 29.8298 57.8209 29.8298C61.4879 29.8298 62.7006 25.5565 62.7006 22.7254C61.141 21.7004 58.9893 19.7222 56.7659 16.603C54.5426 13.4837 47.0039 3.85864 33.0416 3.85864C19.0793 3.85864 11.5433 13.485 9.31994 16.6043C7.09656 19.7235 4.9449 21.7004 3.38528 22.7267C3.38528 25.5565 4.59803 29.8311 8.26498 29.8311C10.7153 29.8311 12.9869 27.5204 14.8921 24.8836L14.8934 24.8823ZM57.7466 20.6911C58.1691 21.1528 58.4025 21.6274 58.4403 22.1047C58.4794 22.5924 58.2995 23.0227 57.9057 23.384C57.577 23.6852 57.2132 23.8534 56.8246 23.8873C56.4843 23.9186 56.1961 23.8756 55.9731 23.7608L55.0903 26.5006L53.9231 25.576L54.9286 23.0188L54.5517 22.6081L52.8225 24.1912L51.8797 23.161L56.3017 19.1119L57.7492 20.6924L57.7466 20.6911ZM53.2072 15.3068L55.3954 17.894L54.6325 18.5395L53.3468 17.019L52.3205 17.8874L53.5567 19.3506L52.7938 19.9961L51.5563 18.5329L50.294 19.5996L51.7441 21.3145L50.9812 21.9599L48.6301 19.1784L53.2085 15.3068H53.2072ZM48.7605 11.0843L52.387 14.3496L51.7141 15.0877L50.4296 13.9323L47.0874 17.6462L46.0494 16.7112L49.3929 12.9973L48.0928 11.8276L48.7618 11.0843H48.7605ZM43.2614 13.5607C43.4778 13.678 43.6813 13.7184 43.8664 13.6832C44.0451 13.6493 44.1807 13.545 44.2785 13.3624C44.3724 13.189 44.3946 12.9791 44.3463 12.7378C44.3163 12.5931 44.2433 12.3909 44.1325 12.1367L43.8873 11.5642C43.7621 11.2773 43.676 11.066 43.6343 10.9369C43.5613 10.714 43.5261 10.5027 43.53 10.3123C43.5339 10.0893 43.59 9.87546 43.6982 9.67594C43.9251 9.25343 44.285 9.00436 44.7662 8.93655C45.2331 8.87135 45.7247 8.97437 46.2267 9.24431C46.5254 9.40601 46.7953 9.62508 47.0287 9.89632C47.2126 10.1115 47.343 10.3149 47.4147 10.4988L47.4551 10.6018L46.5462 10.9982L46.4967 10.9004C46.4354 10.7779 46.3845 10.6892 46.3428 10.6253C46.2085 10.431 46.0481 10.2823 45.8694 10.1858C45.6751 10.0815 45.4991 10.0385 45.3413 10.0593C45.1965 10.0789 45.0909 10.1558 45.0153 10.2941C44.9631 10.3906 44.9592 10.521 45.0009 10.68C45.0127 10.7257 45.0557 10.8535 45.2018 11.216L45.5538 12.1236C45.7025 12.5096 45.7912 12.8226 45.8186 13.0521C45.8551 13.382 45.7951 13.6963 45.6386 13.9871C45.3935 14.4435 45.0009 14.7186 44.4741 14.8034C44.3646 14.8217 44.2524 14.8308 44.1403 14.8308C43.7452 14.8308 43.3344 14.7173 42.9197 14.4943C42.5676 14.3053 42.2625 14.0692 42.0121 13.7928C41.7565 13.5098 41.5987 13.2646 41.527 13.0404L41.497 12.9465L42.3876 12.494L42.4424 12.5879C42.5428 12.7613 42.6289 12.8969 42.6967 12.9908C42.9001 13.2764 43.0892 13.4668 43.2601 13.5594L43.2614 13.5607ZM39.2775 6.36109L42.4933 7.433L42.1777 8.38103L40.2882 7.75119L39.863 9.02653L41.6809 9.6316L41.3653 10.5796L39.5475 9.97326L39.0245 11.542L41.1553 12.2514L40.8398 13.1994L37.3841 12.048L39.2801 6.35978L39.2775 6.36109ZM31.216 5.83686L32.6126 5.85773L32.5787 8.10849L34.9273 8.1437L34.9612 5.89294L36.3578 5.9138L36.2665 11.9084L34.8699 11.8876L34.9116 9.1765L32.5631 9.14129L32.5213 11.8524L31.1247 11.8315L31.216 5.83686ZM25.2044 7.74727C25.6543 7.01962 26.3219 6.528 27.1865 6.28806C27.5647 6.18243 27.9481 6.12766 28.3236 6.12245H28.3784C28.7318 6.12245 29.0422 6.16026 29.3017 6.23459L29.4138 6.26719L29.1152 7.25435L29.0017 7.21523C28.8661 7.16828 28.6783 7.1422 28.4449 7.13699C28.1541 7.12916 27.9011 7.15655 27.6768 7.21914C27.0705 7.38736 26.6649 7.71337 26.4367 8.21673C26.2281 8.67705 26.202 9.19866 26.3598 9.76592C26.5175 10.3319 26.7966 10.7492 27.1904 11.0048C27.6312 11.2903 28.1815 11.3438 28.8283 11.1638C29.0409 11.1052 29.256 11.0061 29.4686 10.8691C29.6459 10.7557 29.7868 10.6409 29.8859 10.5288L29.9719 10.431L30.6513 11.1912L30.5744 11.2682C30.3266 11.5185 30.0841 11.7115 29.8546 11.8419C29.6238 11.9723 29.3317 12.0871 28.9874 12.1836C28.6327 12.2827 28.2806 12.3323 27.9416 12.3323C27.433 12.3323 26.9375 12.2188 26.468 11.9971C25.6517 11.6098 25.117 10.9748 24.8758 10.1089C24.6437 9.27299 24.7545 8.47753 25.207 7.74727H25.2044ZM18.5251 10.2967L23.0958 11.9319L21.0119 8.69922L21.973 8.08111L25.2161 13.1251L24.3972 13.6506L19.7274 12.0219L21.8348 15.2989L20.8437 15.9366L17.6006 10.8926L18.5251 10.298V10.2967ZM14.2779 13.9206L20.2073 16.2744L19.2019 17.4076L17.6371 16.7373L16.3226 18.2174L17.0842 19.7913L16.26 20.7211L13.5828 14.7056L14.2779 13.9232V13.9206ZM7.90897 21.2271L12.2332 22.5415L10.2523 18.3608L11.1821 17.2224L15.8232 21.0184L14.9482 22.0877L11.7363 19.4601L13.7628 23.5365L13.2777 24.1299L9.07348 22.8115L12.2384 25.4L11.4925 26.3128L6.8514 22.5168L7.90767 21.2258L7.90897 21.2271Z" fill="#1D2025"/>
<path d="M14.9964 15.5454L15.8831 17.3306L16.7608 16.3422L14.9964 15.5454Z" fill="#1D2025"/>
</g>
<defs>
<clipPath id="clip0_5148_64403">
<rect width="66.1054" height="67" fill="white"/>
</clipPath>
</defs>
</svg>
