<svg width="96" height="37" viewBox="0 0 96 37" fill="none" xmlns="http://www.w3.org/2000/svg">
<g clip-path="url(#clip0_5148_64415)">
<path d="M36.2995 18.4993C36.2995 28.3615 28.3045 36.355 18.4438 36.355C8.58307 36.355 0.589508 28.3615 0.589508 18.4993C0.589508 8.63718 8.58307 0.64502 18.4452 0.64502C28.3073 0.64502 36.3009 8.63858 36.3009 18.4993H36.2995ZM11.3334 14.4962H14.5919C14.6927 14.4962 14.7641 14.4165 14.7739 14.3129C15.0384 12.5241 16.5808 11.151 18.4438 11.151C20.3068 11.151 21.8492 12.5241 22.1152 14.3129C22.1264 14.4137 22.2075 14.4962 22.3083 14.4962H25.5542C25.655 14.4962 25.7375 14.4151 25.7375 14.3143C25.4576 10.5309 22.2985 7.54823 18.4438 7.54823C14.5891 7.54823 11.43 10.5296 11.1501 14.3143C11.1501 14.4151 11.2313 14.4962 11.332 14.4962H11.3334ZM21.9486 21.2749C24.0635 20.1145 25.5458 17.945 25.7333 15.4102C25.7333 15.3109 25.6522 15.2283 25.55 15.2283H22.2915C22.1907 15.2283 22.1208 15.3081 22.1082 15.4102C21.8436 17.2004 20.3012 18.5735 18.4382 18.5735C16.5752 18.5735 15.0328 17.2004 14.7683 15.4102C14.7585 15.3039 14.6871 15.2283 14.5849 15.2283H11.3278C11.2271 15.2283 11.1459 15.3095 11.1459 15.4102C11.3334 17.945 12.8157 20.1145 14.9306 21.2749C12.7135 22.4898 11.1935 24.8161 11.1277 27.5077C11.1277 27.6084 11.2089 27.6896 11.311 27.6896H14.5499C14.6507 27.6896 14.7333 27.6084 14.7333 27.5077C14.8284 25.5425 16.4521 23.9791 18.4396 23.9791C20.4272 23.9791 22.0522 25.5425 22.1474 27.5077C22.1474 27.6084 22.2299 27.6896 22.3293 27.6896H25.5696C25.6703 27.6896 25.7515 27.6084 25.7515 27.5077C25.6857 24.8175 24.1657 22.4912 21.9486 21.2749Z" fill="#1D2025"/>
<path d="M50.551 20.4351C50.551 21.5086 49.4495 21.8726 48.8042 21.8726C48.159 21.8726 47.056 21.5086 47.056 20.4351V14.583C47.056 13.5081 48.1576 13.1456 48.8042 13.1456C49.4509 13.1456 50.551 13.5095 50.551 14.583V20.4351ZM48.8042 10.3098C45.6829 10.3182 44.2329 12.5073 44.2329 14.3647V20.6506C44.2329 22.5108 45.6829 24.6985 48.8042 24.7069C51.9255 24.6985 53.3742 22.5094 53.3742 20.6506V14.3647C53.3742 12.5073 51.9241 10.3182 48.8042 10.3098Z" fill="#1D2025"/>
<path d="M68.8336 24.4508V18.978H73.0509V16.1731H68.8546V13.3877H73.7409V10.5646H66.0175V24.4508H68.8336Z" fill="#1D2025"/>
<path d="M78.5236 14.898L79.6518 19.2678H77.3745L78.5236 14.898ZM80.9899 24.4508H83.8046L80.1234 10.5646H76.83L73.2076 24.4508H76.0364L76.6816 21.9916H80.3572L80.9899 24.4508Z" fill="#1D2025"/>
<path d="M60.9814 17.4986L64.5758 10.5646H61.3146L59.348 14.6082L57.3801 10.5646H54.1188L57.7132 17.4986L54.0992 24.4508H57.3983L59.348 20.4169L61.2964 24.4508H64.5954L60.9814 17.4986Z" fill="#1D2025"/>
<path d="M92.8843 10.5646L90.3999 15.9071L87.8804 10.5646H84.9887V24.4522H87.7475V16.5524L89.5209 20.2448H91.2831L93.0565 16.5636V24.4522H95.8166V10.5646H92.8843Z" fill="#1D2025"/>
</g>
<defs>
<clipPath id="clip0_5148_64415">
<rect width="95.2271" height="35.71" fill="white" transform="translate(0.589508 0.64502)"/>
</clipPath>
</defs>
</svg>
