<svg width="24" height="24" viewBox="0 0 24 24" fill="none" xmlns="http://www.w3.org/2000/svg">
<path d="M17.8965 10.6922C17.6128 10.4507 6.06309 2.44266 5.53626 2.12072L5.37415 2V3.97183C5.37415 4.61569 5.69836 4.8169 6.10361 5.13883L6.18465 5.17907C6.75201 5.58149 14.9787 11.2555 16.0729 12.0201C14.9787 12.7847 6.63044 18.5392 6.10361 18.8612C5.4552 19.2636 5.41467 19.5453 5.41467 20.1087V22C5.41467 22 17.6939 13.5091 17.937 13.3078C18.5044 12.9054 18.626 12.3823 18.626 12.0604V11.8189C18.626 11.4165 18.3828 11.0141 17.8965 10.6922Z" fill="#1D2025" fill-opacity="0.5"/>
<path d="M13.2639 12.9054C13.5881 12.9054 13.9123 12.7846 14.2365 12.5432C14.6417 12.2615 15.0065 12.02 15.0065 12.02L15.128 11.9396L15.0065 11.8591C14.9659 11.8188 9.57606 8.11662 9.00871 7.75445C8.76555 7.55324 8.44135 7.513 8.23873 7.63372C8.0361 7.75445 7.874 7.95566 7.874 8.27759V9.52507L7.91453 9.56531C7.95505 9.60556 11.6429 12.1408 12.3723 12.6237C12.6965 12.8249 12.9802 12.9054 13.2639 12.9054Z" fill="#1D2025" fill-opacity="0.5"/>
</svg>
