<svg width="24" height="18" viewBox="0 0 24 18" fill="none" xmlns="http://www.w3.org/2000/svg">
<g opacity="0.5">
<path d="M4.68005 7.04948H1.92959L1.40485 8.31909H0L2.64043 2.39502H3.99448L6.64329 8.31909H5.20472L4.68005 7.04948ZM4.24847 6.00865L3.30898 3.74063L2.36961 6.00865H4.24847Z" fill="#1D2025"/>
<path d="M12.5155 4.54462C12.5155 5.8647 11.5253 6.68558 9.94277 6.68558H8.74949V8.31909H7.37854V2.39502H9.94277C11.5253 2.39502 12.5155 3.21596 12.5155 4.54462ZM11.1276 4.54462C11.1276 3.89289 10.7045 3.51211 9.86671 3.51211H8.74949V5.56856H9.86671C10.7045 5.56856 11.1276 5.18771 11.1276 4.54462Z" fill="#1D2025"/>
<path d="M13.489 2.39502H14.86V8.31909H13.489V2.39502Z" fill="#1D2025"/>
<path d="M0 12.0156H2.69122C4.62919 12.0156 5.95791 13.1834 5.95791 14.9775C5.95791 16.7718 4.62919 17.9396 2.69122 17.9396H0V12.0156ZM2.62334 16.814C3.7998 16.814 4.56982 16.1115 4.56982 14.9775C4.56982 13.8436 3.7998 13.141 2.62334 13.141H1.37101V16.814H2.62334Z" fill="#1D2025"/>
<path d="M9.72382 13.3188V14.5375C9.61372 14.5292 9.52914 14.5205 9.42768 14.5205C8.69982 14.5205 8.21737 14.9184 8.21737 15.7901V17.9397H6.89709V13.3865H8.15813V13.9875C8.47974 13.5474 9.02136 13.3188 9.72382 13.3188Z" fill="#1D2025"/>
<path d="M10.3501 12.0156C10.3501 11.601 10.6802 11.2793 11.171 11.2793C11.6617 11.2793 11.9919 11.5841 11.9919 11.9901C11.9919 12.4302 11.6617 12.7519 11.171 12.7519C10.6802 12.752 10.3501 12.4303 10.3501 12.0156ZM10.5109 13.3865H11.8311V17.9397H10.5109V13.3865Z" fill="#1D2025"/>
<path d="M17.5775 13.3867L15.6564 17.94H14.2939L12.3813 13.3867H13.7438L15.0047 16.4842L16.308 13.3867H17.5775Z" fill="#1D2025"/>
<path d="M22.427 16.0356H18.9826C19.1095 16.6024 19.5918 16.9494 20.2859 16.9494C20.7682 16.9494 21.1152 16.8057 21.4283 16.5095L22.1308 17.271C21.7076 17.7534 21.0729 18.0073 20.252 18.0073C18.6779 18.0073 17.6538 17.0173 17.6538 15.6631C17.6538 14.3006 18.6948 13.3188 20.0826 13.3188C21.4198 13.3188 22.4523 14.216 22.4523 15.68C22.4524 15.7815 22.4355 15.9255 22.427 16.0356ZM18.9656 15.2655H21.2083C21.1152 14.6899 20.6835 14.3175 20.0912 14.3175C19.4904 14.3175 19.0587 14.6814 18.9656 15.2655Z" fill="#1D2025"/>
<path d="M15.7841 9.32257L18.6206 5.25519L16.5557 2.39508H18.0366L19.3738 4.31583L22.4429 0H24L20.2116 5.30585L22.4034 8.31882H20.8293L19.4246 6.26211L16.2911 10.569L15.7841 9.32257Z" fill="#1D2025"/>
<path d="M15.6315 10.7079L15.1379 9.45459H0.117432L0.680099 10.7079H15.6315Z" fill="#1D2025"/>
</g>
</svg>
