<svg width="24" height="24" viewBox="0 0 24 24" fill="none" xmlns="http://www.w3.org/2000/svg">
<path d="M13.5593 0.237305C13.0169 0.237305 12.4746 0.508491 12.1356 0.915271C9.69492 4.03391 8.20339 7.69493 7.59322 11.3559C6.98305 14.5424 7.25424 18.6102 8.33898 22.4068C8.54237 23.1526 8.94915 23.7627 12 23.7627C20.2712 23.7627 24 20.5085 24 12.0339C24 3.69493 20.4746 0.237305 13.5593 0.237305ZM13.3559 22.678C12.8814 22.9492 12.2034 22.7458 12 22.2712C10.3051 19.0848 9.76271 15.4915 10.4407 11.8983C11.1186 8.3051 12.8814 5.11866 15.5932 2.67798C16 2.339 16.678 2.339 17.0169 2.74578C17.4237 3.15256 17.3559 3.76273 16.9492 4.16951C14.6441 6.20341 13.0169 8.98307 12.4746 12.2373C11.8644 15.4237 12.4746 18.6102 13.8305 21.322C13.8305 21.322 13.8305 21.3221 13.8305 21.3898C14.0339 21.7966 13.8305 22.4068 13.3559 22.678ZM19.5932 7.62713C17.8983 8.98307 16.678 10.7458 16.2712 12.8475C15.8644 14.9492 16.2712 17.0509 17.3559 18.8136C17.3559 18.8136 17.3559 18.8136 17.3559 18.8814C17.5593 19.1526 17.4237 19.5593 17.0847 19.6949C16.7458 19.8305 16.339 19.7627 16.1356 19.4237C14.9153 17.4576 14.4407 15.0848 14.9153 12.7119C15.3898 10.339 16.7458 8.3051 18.6441 6.74578C18.6441 6.74578 18.6441 6.74578 18.7119 6.67798C18.983 6.47459 19.4576 6.47459 19.661 6.74578C19.9322 7.01697 19.8644 7.42374 19.5932 7.62713ZM3.66102 20.9153C3.72881 21.322 3.25424 21.5932 2.91525 21.322C1.08475 19.6949 0 17.5932 0 11.9661C0 4.71188 2.84746 1.59324 6.71186 0.576288C7.11864 0.440694 7.38983 0.915271 7.18644 1.18646C5.42373 4.10171 4.20339 7.28815 3.59322 10.678C2.98305 14.0678 3.05085 17.5932 3.66102 20.9153Z" fill="#1D2025" fill-opacity="0.5"/>
</svg>
