<svg width="24" height="24" viewBox="0 0 24 24" fill="none" xmlns="http://www.w3.org/2000/svg">
<path d="M12 2.16218C15.204 2.16218 15.5836 2.17418 16.8491 2.232C17.6098 2.24119 18.3633 2.38104 19.0767 2.64545C19.598 2.83784 20.0696 3.14463 20.4567 3.54327C20.8554 3.9304 21.1622 4.40196 21.3545 4.92327C21.619 5.63665 21.7588 6.39016 21.768 7.15091C21.8258 8.41636 21.8378 8.796 21.8378 12C21.8378 15.204 21.8258 15.5836 21.768 16.8491C21.7588 17.6098 21.619 18.3633 21.3545 19.0767C21.1549 19.5944 20.8491 20.0645 20.4568 20.4568C20.0645 20.8491 19.5944 21.1549 19.0767 21.3545C18.3633 21.619 17.6098 21.7588 16.8491 21.768C15.5836 21.8258 15.204 21.8378 12 21.8378C8.796 21.8378 8.41636 21.8258 7.15091 21.768C6.38979 21.7589 5.6359 21.6191 4.92218 21.3545C4.40126 21.162 3.93008 20.8552 3.54327 20.4567C3.14463 20.0696 2.83784 19.598 2.64545 19.0767C2.38104 18.3633 2.24119 17.6098 2.232 16.8491C2.17418 15.5836 2.16218 15.204 2.16218 12C2.16218 8.796 2.17418 8.41636 2.232 7.15091C2.24119 6.39016 2.38104 5.63665 2.64545 4.92327C2.83784 4.40196 3.14463 3.9304 3.54327 3.54327C3.9304 3.14463 4.40196 2.83784 4.92327 2.64545C5.63665 2.38104 6.39016 2.24119 7.15091 2.232C8.41636 2.17418 8.796 2.16218 12 2.16218ZM12 0C8.74146 0 8.33236 0.0141818 7.05273 0.072C6.05729 0.0918587 5.07242 0.280348 4.14 0.629455C3.33891 0.931068 2.6133 1.40389 2.01382 2.01491C1.40332 2.61418 0.930889 3.3394 0.629455 4.14C0.28072 5.07249 0.0926004 6.05735 0.0730909 7.05273C0.0130909 8.33236 0 8.74146 0 12C0 15.2585 0.0141818 15.6676 0.072 16.9473C0.0918587 17.9427 0.280348 18.9276 0.629455 19.86C0.931068 20.6611 1.40389 21.3867 2.01491 21.9862C2.61418 22.5967 3.3394 23.0691 4.14 23.3705C5.07249 23.7193 6.05735 23.9074 7.05273 23.9269C8.33236 23.9869 8.74146 24 12 24C15.2585 24 15.6676 23.9858 16.9473 23.928C17.9427 23.9081 18.9276 23.7197 19.86 23.3705C20.6574 23.0622 21.3816 22.5907 21.9862 21.9862C22.5907 21.3816 23.0622 20.6574 23.3705 19.86C23.7193 18.9275 23.9074 17.9426 23.9269 16.9473C23.9869 15.6676 24 15.2585 24 12C24 8.74146 23.9858 8.33236 23.928 7.05273C23.9081 6.05729 23.7197 5.07242 23.3705 4.14C23.0689 3.33891 22.5961 2.6133 21.9851 2.01382C21.3858 1.40332 20.6606 0.930889 19.86 0.629455C18.9275 0.28072 17.9426 0.0926004 16.9473 0.0730909C15.6676 0.0130909 15.2585 0 12 0ZM12 5.83745C10.7812 5.83745 9.5897 6.19888 8.57627 6.87603C7.56285 7.55318 6.77298 8.51564 6.30655 9.6417C5.84012 10.7678 5.71808 12.0068 5.95587 13.2023C6.19365 14.3977 6.78058 15.4957 7.64242 16.3576C8.50427 17.2194 9.60233 17.8064 10.7977 18.0441C11.9932 18.2819 13.2322 18.1599 14.3583 17.6935C15.4844 17.227 16.4468 16.4372 17.124 15.4237C17.8011 14.4103 18.1625 13.2188 18.1625 12C18.1625 10.3656 17.5133 8.79812 16.3576 7.64242C15.2019 6.48672 13.6344 5.83745 12 5.83745ZM12 16.0004C11.2088 16.0004 10.4354 15.7657 9.77752 15.3262C9.11966 14.8866 8.60692 14.2618 8.30415 13.5309C8.00137 12.7999 7.92215 11.9956 8.0765 11.2196C8.23086 10.4436 8.61186 9.73078 9.17132 9.17132C9.73078 8.61186 10.4436 8.23086 11.2196 8.0765C11.9956 7.92215 12.7999 8.00137 13.5309 8.30415C14.2618 8.60692 14.8866 9.11966 15.3262 9.77752C15.7657 10.4354 16.0004 11.2088 16.0004 12C16.0004 13.061 15.5789 14.0785 14.8287 14.8287C14.0785 15.5789 13.061 16.0004 12 16.0004ZM18.4058 4.15418C18.121 4.15418 17.8426 4.23864 17.6058 4.39687C17.369 4.55509 17.1844 4.77999 17.0754 5.04312C16.9664 5.30624 16.9379 5.59578 16.9935 5.87511C17.0491 6.15444 17.1862 6.41103 17.3876 6.61242C17.589 6.8138 17.8456 6.95095 18.1249 7.00651C18.4042 7.06208 18.6938 7.03356 18.9569 6.92457C19.22 6.81558 19.4449 6.63101 19.6031 6.3942C19.7614 6.1574 19.8458 5.87899 19.8458 5.59418C19.8458 5.21227 19.6941 4.846 19.4241 4.57595C19.154 4.3059 18.7877 4.15418 18.4058 4.15418Z" fill="#1D2025" fill-opacity="0.5"/>
</svg>
