<svg width="24" height="24" viewBox="0 0 24 24" fill="none" xmlns="http://www.w3.org/2000/svg">
<path d="M6.23693 16.1293C6.25207 16.1465 6.2613 16.1676 6.26342 16.1898C6.26554 16.2121 6.26043 16.2344 6.24878 16.2539C6.19213 16.3403 6.11091 16.41 6.01429 16.4554C5.91767 16.5007 5.80949 16.5198 5.70195 16.5105C5.51029 16.4911 5.33361 16.4041 5.20763 16.267C5.08164 16.1299 5.01575 15.9531 5.02326 15.7721C5.02001 15.5255 5.06794 15.2807 5.16436 15.0513C5.22523 14.9076 5.23158 14.7486 5.18235 14.601C5.13311 14.4534 5.0313 14.3262 4.89401 14.2408C4.81276 14.1903 4.72156 14.1556 4.62579 14.1387C4.53003 14.1219 4.43164 14.1232 4.33644 14.1427C4.24317 14.1611 4.15477 14.1969 4.07643 14.2479C3.99809 14.2989 3.9314 14.3641 3.88027 14.4397C3.80796 14.556 3.75174 14.6805 3.71296 14.8101C3.70548 14.8329 3.69945 14.8509 3.69487 14.8624C3.63134 15.0234 3.53006 15.0703 3.46143 15.0617C3.42899 15.0575 3.38438 15.0371 3.35579 14.9635C3.3199 14.7505 3.33618 14.5326 3.40341 14.3264C3.47064 14.1202 3.58703 13.9311 3.74374 13.7736C3.87536 13.6408 4.03872 13.5394 4.22033 13.4777C4.40194 13.416 4.59657 13.3958 4.78814 13.4188C4.99108 13.445 5.18393 13.5181 5.34943 13.6315C5.51493 13.7448 5.64791 13.895 5.73646 14.0686C5.82614 14.2818 5.86232 14.5116 5.84222 14.7401C5.82211 14.9687 5.74625 15.1898 5.62052 15.3863C5.60461 15.4197 5.59005 15.4504 5.57778 15.4781C5.53257 15.5549 5.50774 15.6408 5.50541 15.7285C5.50307 15.8162 5.5233 15.9031 5.56437 15.9819C5.59909 16.0289 5.64568 16.067 5.69995 16.093C5.75423 16.1189 5.8145 16.1318 5.87538 16.1304C5.93276 16.1296 5.98981 16.1221 6.04518 16.1079C6.11724 16.092 6.1917 16.0758 6.23693 16.1293ZM24 16.5458C23.9597 17.3228 23.785 18.0885 23.4826 18.8127C21.9741 22.2185 18.3742 24.1146 14.0856 23.9946C10.0877 23.8827 6.67792 21.8949 5.18557 18.6546C4.24346 18.6299 3.34218 18.2879 2.64601 17.6912C1.92685 17.1153 1.46479 16.3062 1.35173 15.4248C1.27876 14.8185 1.35859 14.2045 1.58478 13.6325L0.74667 12.9635C-3.08819 9.9126 8.90624 -2.64925 12.7426 0.50356C12.7619 0.519431 14.0475 1.70806 14.0508 1.71099C14.0559 1.70854 14.7601 1.42716 14.7637 1.42579C18.1285 0.112939 20.8588 0.746832 20.8623 2.84153C20.864 3.9309 20.1273 5.20065 18.9472 6.35322C19.4188 6.80414 19.7528 7.36586 19.914 7.97958C20.0442 8.40775 20.1145 8.84999 20.1233 9.29518C20.1437 9.73911 20.1664 10.7733 20.1687 10.7917C20.1986 10.8003 20.5393 10.8883 20.6425 10.9157C21.329 11.0571 21.9679 11.3553 22.5026 11.7837C22.7848 12.043 22.9697 12.3814 23.0292 12.748C23.102 13.2236 22.9757 13.7072 22.6768 14.0972C22.7545 14.2638 22.822 14.4345 22.8789 14.6084C22.9782 14.9084 23.0505 15.1574 23.0616 15.1943C23.4266 15.1943 24 15.5903 24 16.5458ZM7.05277 14.6769C6.79199 13.0865 5.65016 12.526 4.87539 12.486C4.68091 12.4763 4.4859 12.4894 4.29485 12.5249C2.912 12.7877 2.13099 13.8961 2.28467 15.3363C2.39659 15.9824 2.73715 16.5741 3.25129 17.0158C3.76543 17.4576 4.42313 17.7236 5.11808 17.7708C5.25108 17.7741 5.3841 17.7653 5.51529 17.7445C6.91687 17.5193 7.28382 16.0854 7.05277 14.6769ZM9.41639 4.58095C10.5878 3.67632 11.8374 2.8649 13.1521 2.15511C13.1521 2.15511 12.1082 1.01458 11.7929 0.930533C9.85385 0.436643 5.66503 3.15855 2.99061 6.75461C1.90846 8.20962 0.359337 10.7863 1.1 12.1115C1.36313 12.409 1.65994 12.6786 1.9852 12.9157C2.48039 12.26 3.22756 11.8109 4.0688 11.6633C5.12126 8.88412 6.97213 6.43282 9.41639 4.58095ZM13.6308 17.1666C13.6822 17.378 13.7934 17.5724 13.9527 17.7293C14.112 17.8862 14.3134 17.9997 14.5357 18.058C14.767 18.1389 15.0056 18.2 15.2487 18.2404C18.3159 18.7375 21.1835 17.0851 21.8291 16.6689C21.8776 16.6376 21.9096 16.6681 21.8707 16.7233C21.8513 16.7526 21.8302 16.781 21.8075 16.8082C21.0173 17.7686 18.8931 18.8807 16.1293 18.8803C14.924 18.8801 13.7192 18.48 13.2769 17.8652C12.5906 16.9112 13.2429 15.5188 14.3864 15.6639C14.3877 15.6641 14.7777 15.7057 14.8873 15.7172C16.6648 15.8778 18.4566 15.6076 20.0913 14.9325C21.6515 14.2501 22.2409 13.4991 22.1524 12.8912C22.1229 12.7024 22.0284 12.5279 21.8834 12.3942C21.4568 12.0643 20.9502 11.8382 20.4085 11.7359C20.1607 11.6704 19.9925 11.6285 19.8114 11.5723C19.4894 11.4724 19.3302 11.3919 19.2941 10.8213C19.2784 10.5718 19.2322 9.70247 19.2155 9.34319C19.186 8.71371 19.1058 7.8533 18.5391 7.49804C18.3948 7.40885 18.2273 7.3584 18.0547 7.35216C17.958 7.34662 17.8609 7.35559 17.7671 7.37871C17.48 7.44111 17.2184 7.58045 17.0141 7.77982C16.7492 8.00467 16.4378 8.17569 16.0993 8.28216C15.7608 8.38863 15.4025 8.42825 15.0469 8.39852C14.6504 8.38295 14.2302 8.32475 13.7486 8.29781C13.6549 8.29261 13.5608 8.28713 13.4669 8.28262C12.8468 8.2979 12.2531 8.52188 11.7939 8.91378C11.3348 9.30567 11.0407 9.83943 10.9653 10.4179C10.6895 12.2056 12.0636 13.1294 12.4603 13.6715C12.5215 13.7405 12.5596 13.8251 12.5694 13.9146C12.559 14.0137 12.5084 14.1053 12.4282 14.1706C11.8795 14.7448 11.4939 15.4403 11.307 16.1917C11.1201 16.9431 11.138 17.7266 11.359 18.4698C11.4114 18.6482 11.4786 18.8226 11.56 18.9912C12.5626 21.1987 15.6728 22.2267 18.7114 21.2916C19.1092 21.1692 19.4954 21.0156 19.8658 20.8323C20.5312 20.5225 21.1304 20.1005 21.6336 19.5875C22.4161 18.8487 22.9311 17.8971 23.1053 16.8678C23.1968 16.2988 23.0629 16.0787 22.8803 15.9728C22.7512 15.9052 22.6021 15.8795 22.4559 15.8997C22.3785 15.4529 22.2427 15.0167 22.0517 14.6011C21.1839 15.2162 20.2029 15.6759 19.1577 15.9572C17.9003 16.291 16.5922 16.4242 15.2879 16.3515C14.4487 16.2876 13.8936 16.0568 13.6848 16.6962C14.9541 17.0949 16.3018 17.2241 17.6307 17.0744C17.64 17.0735 17.6495 17.0743 17.6585 17.0768C17.6675 17.0794 17.6759 17.0836 17.6831 17.0892C17.6904 17.0947 17.6964 17.1016 17.7009 17.1094C17.7053 17.1172 17.7081 17.1257 17.709 17.1345C17.7104 17.1493 17.7069 17.1641 17.6989 17.1769C17.691 17.1897 17.679 17.1999 17.6647 17.206C17.6647 17.206 16.1061 17.8879 13.6308 17.1666ZM9.06607 6.79967C10.097 6.11981 11.2594 5.63573 12.4879 5.37464C13.8738 5.07294 15.3144 5.06929 16.702 5.36396C16.7506 5.37444 16.7816 5.29518 16.7381 5.27227C16.018 4.92007 15.2232 4.72377 14.4118 4.69774C14.404 4.69761 14.3964 4.69546 14.3898 4.69152C14.3832 4.68757 14.3779 4.682 14.3744 4.67541C14.371 4.66881 14.3695 4.66145 14.3703 4.65414C14.371 4.64683 14.3738 4.63985 14.3785 4.63396C14.5046 4.47857 14.6518 4.3394 14.8164 4.22002C14.8238 4.21462 14.8291 4.20714 14.8317 4.19868C14.8342 4.19022 14.8338 4.18122 14.8305 4.17299C14.8272 4.16476 14.8212 4.15773 14.8134 4.15292C14.8056 4.14811 14.7963 4.14577 14.787 4.14625C13.7934 4.23852 12.8386 4.55616 12.0046 5.07183C11.9975 5.07637 11.9891 5.07878 11.9805 5.07876C11.9719 5.07874 11.9635 5.07629 11.9564 5.07172C11.9493 5.06716 11.9438 5.06069 11.9407 5.05316C11.9375 5.04563 11.9369 5.03739 11.9388 5.02951C12.006 4.79303 12.1049 4.56554 12.2332 4.35251C12.2374 4.34522 12.2391 4.33685 12.2379 4.32861C12.2367 4.32038 12.2327 4.31272 12.2266 4.30676C12.2204 4.30081 12.2123 4.29687 12.2036 4.29553C12.1949 4.29419 12.1859 4.29551 12.1781 4.29931C10.972 4.92465 9.89777 5.75182 9.00836 6.74004C9.00139 6.74754 8.9976 6.75718 8.99771 6.76713C8.99781 6.77708 9.00181 6.78665 9.00894 6.79401C9.01606 6.80137 9.02582 6.80602 9.03636 6.80706C9.04689 6.80811 9.05747 6.80548 9.06607 6.79967ZM17.1433 12.8681C17.2273 12.918 17.3279 12.9371 17.4259 12.9218C17.5239 12.9065 17.6125 12.8579 17.6747 12.7851C17.7521 12.6445 17.6398 12.4537 17.4237 12.3589C17.3398 12.309 17.2392 12.2899 17.1411 12.3052C17.0431 12.3206 16.9545 12.3693 16.8923 12.4421C16.8149 12.5826 16.9273 12.7734 17.1433 12.8681ZM17.806 10.5871C17.8578 10.8403 17.9696 11.0794 18.1332 11.2865C18.3021 11.267 18.473 11.267 18.642 11.2865C18.7408 11.0085 18.7494 10.7092 18.6668 10.4266C18.5447 9.90516 18.3795 9.58956 18.038 9.63862C17.6966 9.68778 17.684 10.0656 17.806 10.5871ZM18.5325 11.7849C18.4463 11.7617 18.3546 11.7644 18.2703 11.7927C18.1859 11.821 18.113 11.8734 18.062 11.9425C18.0109 12.0117 17.9842 12.0941 17.9856 12.1783C17.987 12.2624 18.0164 12.344 18.0697 12.4117C18.123 12.4793 18.1975 12.5296 18.2828 12.5554C18.3681 12.5811 18.4599 12.5812 18.5452 12.5555C18.6305 12.5298 18.7051 12.4796 18.7585 12.412C18.8119 12.3444 18.8414 12.2628 18.8429 12.1787C18.8552 12.0881 18.8298 11.9965 18.772 11.9231C18.7141 11.8498 18.6283 11.8002 18.5325 11.7849Z" fill="#1D2025" fill-opacity="0.5"/>
<path d="M12.8646 11.7387C12.8101 11.7315 12.7869 11.7096 12.7801 11.6806C12.7589 11.5907 12.9062 11.4426 13.0615 11.3357C13.288 11.1801 13.5534 11.0819 13.8321 11.0505C14.1108 11.019 14.3934 11.0555 14.6528 11.1563C14.8951 11.2502 15.1035 11.4077 15.253 11.6101C15.3085 11.6951 15.3192 11.7611 15.2833 11.7957C15.2274 11.8511 15.0848 11.7876 14.8527 11.692C14.5739 11.5634 14.2657 11.5011 13.9553 11.5104C13.5875 11.5672 13.2233 11.6435 12.8646 11.7387ZM15.1782 12.1861C15.0779 12.0871 14.953 12.013 14.8147 11.9704C14.6764 11.9278 14.5291 11.9181 14.3858 11.9422C14.1746 11.9633 13.9744 12.0416 13.8097 12.1677C13.733 12.2194 13.6803 12.2968 13.6624 12.3839C13.6619 12.3936 13.6638 12.4033 13.6678 12.4122C13.6718 12.4212 13.6778 12.4292 13.6855 12.4357C13.6991 12.4473 13.7168 12.4536 13.7352 12.4535C13.8112 12.443 13.8855 12.4236 13.9564 12.3958C14.2668 12.286 14.602 12.2533 14.9298 12.3009C15.0817 12.3169 15.1534 12.3259 15.1867 12.2769C15.1953 12.2627 15.1991 12.2465 15.1975 12.2303C15.196 12.214 15.1892 12.1987 15.1782 12.1861Z" fill="#1D2025" fill-opacity="0.5"/>
</svg>
