<svg width="24" height="24" viewBox="0 0 24 24" fill="none" xmlns="http://www.w3.org/2000/svg">
<path d="M11.3184 10.6363H7.90929V12.5454H11.3184V10.6363Z" fill="#1D2025" fill-opacity="0.5"/>
<path d="M7.90929 13.9091V15.8182H11.3184V13.9091H7.90929Z" fill="#1D2025" fill-opacity="0.5"/>
<path d="M12.682 15.8182H16.0911V13.9091H12.682V15.8182Z" fill="#1D2025" fill-opacity="0.5"/>
<path d="M12.682 12.5454H16.0911V10.6363H12.682V12.5454Z" fill="#1D2025" fill-opacity="0.5"/>
<path fill-rule="evenodd" clip-rule="evenodd" d="M4.90907 24H19.0909C19.995 24 20.7273 23.2677 20.7273 22.3636V6L14.7273 0H4.90907C4.00498 0 3.27271 0.732273 3.27271 1.63636V22.3636C3.27271 23.2677 4.00498 24 4.90907 24ZM17.4547 9.27271V17.1818H6.54565V9.27271H17.4547Z" fill="#1D2025" fill-opacity="0.5"/>
<path d="M14.7267 0L20.7267 6H14.7267V0Z" fill="#1D2025" fill-opacity="0.5"/>
</svg>
