<svg width="24" height="24" viewBox="0 0 24 24" fill="none" xmlns="http://www.w3.org/2000/svg">
<path d="M11.937 23C13.4213 23 14.6245 21.7968 14.6245 20.3125C14.6245 18.8282 13.4213 17.625 11.937 17.625C10.4527 17.625 9.24951 18.8282 9.24951 20.3125C9.24951 21.7968 10.4527 23 11.937 23Z" fill="#1D2025" fill-opacity="0.15"/>
<path d="M22.1945 10.0553L13.9445 1.80531C12.8707 0.731562 11.1295 0.731562 10.0557 1.80531C8.98199 2.87906 8.98199 4.62031 10.0557 5.69406L16.3493 11.9876L10.2298 18.2368C9.63121 18.7297 9.24951 19.4765 9.24951 20.3125C9.24951 21.7968 10.4527 23 11.937 23C12.8125 23 13.5903 22.5813 14.081 21.9333L22.0005 14.1206C22.0672 14.0654 22.132 14.0066 22.1945 13.9441C23.2682 12.8703 23.2682 11.1291 22.1945 10.0553Z" fill="#1D2025" fill-opacity="0.15"/>
<path d="M9.74765 21.8717L1.8045 13.8765C0.731997 12.8027 0.731997 11.064 1.8045 9.99149L9.91129 1.96143C8.98437 3.0417 9.03252 4.67108 10.0557 5.6943L11.9631 7.60165L7.63075 11.934L11.952 16.4784L10.2298 18.237C9.63121 18.7299 9.24951 19.4768 9.24951 20.3127C9.24951 20.894 9.43402 21.4321 9.74765 21.8717Z" fill="#1D2025" fill-opacity="0.5"/>
</svg>
