<svg width="24" height="24" viewBox="0 0 24 24" fill="none" xmlns="http://www.w3.org/2000/svg">
<path fill-rule="evenodd" clip-rule="evenodd" d="M1.70145 17.8426L0 23.9999L6.344 22.3427C8.09261 23.2975 10.0577 23.7973 12.0549 23.7948C18.6417 23.7948 24 18.4593 24 11.9025C24 8.72156 22.7609 5.73363 20.5005 3.48389C18.2401 1.23352 15.2388 0 12.043 0C5.45622 0 0.0972255 5.33481 0.109823 11.9025C0.106593 13.9861 0.655384 16.0345 1.70145 17.8426ZM2.05401 17.6368L0.413451 23.5877L6.53781 21.979C8.22734 22.8981 10.1232 23.3825 12.0549 23.3825C18.4108 23.3825 23.5872 18.2292 23.5872 11.9025C23.591 10.3961 23.2946 8.90435 22.7149 7.51104C22.1352 6.11838 21.2836 4.85227 20.2088 3.78556C18.0218 1.62083 15.1296 0.423103 12.043 0.423103C5.68777 0.423103 0.510676 5.5764 0.510676 11.9025C0.510313 13.9145 1.04239 15.8913 2.05401 17.6368Z" fill="#1D2025" fill-opacity="0.5"/>
<path d="M0 23.9999L1.70145 17.8426C0.655384 16.0345 0.106593 13.9861 0.109823 11.9025C0.0972255 5.33481 5.45622 0 12.043 0C15.2388 0 18.2401 1.23352 20.5005 3.48389C22.7609 5.73363 24 8.72156 24 11.9025C24 18.4593 18.6417 23.7948 12.0549 23.7948C10.0577 23.7973 8.09261 23.2975 6.344 22.3427L0 23.9999ZM6.62381 20.2015L6.98831 20.4194C8.51736 21.3206 10.2638 21.797 12.0436 21.7984C17.5118 21.7984 21.9718 17.3585 21.9718 11.9152C21.9718 9.27774 20.9391 6.78618 19.0677 4.92291C17.1949 3.06095 14.6917 2.02034 12.0423 2.02034C6.56163 2.02034 2.10165 6.46026 2.10165 11.9035C2.10165 13.7667 2.62425 15.5934 3.62117 17.1654L3.85204 17.5411L2.84322 21.1943L6.62249 20.2021L6.62381 20.2015Z" fill="#1D2025" fill-opacity="0.5"/>
<path fill-rule="evenodd" clip-rule="evenodd" d="M9.06517 6.91862C8.84687 6.42254 8.60343 6.41076 8.39704 6.41076C8.21446 6.39832 8.01997 6.39832 7.81358 6.39832C7.61909 6.39832 7.29097 6.47097 7.01181 6.77333C6.73199 7.0757 5.96661 7.78972 5.96661 9.25377C5.96661 10.7172 7.03629 12.1328 7.18182 12.3258C7.32736 12.5196 9.24775 15.6165 12.2855 16.8142C14.8131 17.8057 15.3238 17.6126 15.8709 17.5518C16.4173 17.4916 17.6325 16.8384 17.8879 16.1362C18.1307 15.447 18.1307 14.8423 18.0579 14.7212C17.9851 14.6001 17.7781 14.5275 17.4863 14.3704C17.1827 14.2251 15.7247 13.5 15.4449 13.4024C15.1657 13.3056 14.9712 13.2571 14.7767 13.5477C14.5823 13.8501 14.0114 14.5157 13.8288 14.7088C13.6588 14.9025 13.4769 14.9267 13.1851 14.7814C12.8808 14.6368 11.9216 14.322 10.7785 13.3056C9.89207 12.5196 9.29671 11.5398 9.11413 11.2492C8.94412 10.9469 9.08965 10.7898 9.24775 10.6445C9.38138 10.5117 9.55205 10.2937 9.69759 10.1242C9.84312 9.9547 9.89141 9.82184 10.0012 9.62812C10.0985 9.43505 10.0495 9.25311 9.97675 9.10847C9.90398 8.97496 9.33243 7.51157 9.06517 6.91862Z" fill="#1D2025" fill-opacity="0.5"/>
</svg>
