<svg width="60" height="61" viewBox="0 0 60 61" fill="none" xmlns="http://www.w3.org/2000/svg">
<rect y="0.75" width="60" height="60" rx="30" fill="#1D2025" fill-opacity="0.05"/>
<g clip-path="url(#clip0_5468_39434)">
<path d="M30.0005 18.75C23.3833 18.75 18.0002 24.1328 18.0002 30.7495C18.0002 37.3667 23.3835 42.75 30.0002 42.75C36.6167 42.75 41.9995 37.3667 41.9995 30.7495C41.9997 24.133 36.617 18.75 30.0005 18.75ZM19.2112 30.7495C19.2112 29.1857 19.5466 27.7004 20.1454 26.359L25.292 40.4597C21.6933 38.7106 19.2112 35.0201 19.2112 30.7495ZM30.0005 41.5393C28.9414 41.5393 27.9192 41.3839 26.9526 41.0996L30.1895 31.6934L33.5065 40.7789C33.5279 40.8325 33.5541 40.8814 33.5833 40.9276C32.4618 41.3221 31.2569 41.5393 30.0005 41.5393ZM31.487 25.6911C32.1364 25.657 32.7222 25.5884 32.7222 25.5884C33.3032 25.5196 33.2352 24.6655 32.6531 24.6996C32.6531 24.6996 30.9057 24.8365 29.7773 24.8365C28.7175 24.8365 26.9354 24.6996 26.9354 24.6996C26.3539 24.6655 26.286 25.5542 26.8673 25.5884C26.8673 25.5884 27.4179 25.657 27.9987 25.6911L29.6795 30.2969L27.3184 37.3779L23.3903 25.6914C24.0406 25.6575 24.6252 25.5887 24.6252 25.5887C25.2062 25.5201 25.1377 24.6655 24.5559 24.7004C24.5559 24.7004 22.8092 24.8373 21.6805 24.8373C21.4778 24.8373 21.2391 24.832 20.9863 24.8243C22.915 21.8949 26.2314 19.961 30.0005 19.961C32.8097 19.961 35.3668 21.0348 37.286 22.7931C37.2394 22.7906 37.1943 22.7844 37.1459 22.7844C36.0865 22.7844 35.3344 23.7076 35.3344 24.6994C35.3344 25.5882 35.8469 26.3408 36.3938 27.2296C36.8045 27.9483 37.2833 28.8717 37.2833 30.2051C37.2833 31.1288 36.9287 32.2001 36.4621 33.6929L35.386 37.2892L31.487 25.6911ZM35.4242 40.0757L38.7197 30.5475C39.3359 29.0086 39.5401 27.7779 39.5401 26.6829C39.5401 26.2862 39.5142 25.9173 39.4673 25.5734C40.3102 27.1103 40.7898 28.8742 40.7893 30.75C40.789 34.73 38.6314 38.2054 35.4242 40.0757Z" fill="black" fill-opacity="0.5"/>
</g>
<defs>
<clipPath id="clip0_5468_39434">
<rect width="24" height="24" fill="white" transform="translate(18 18.75)"/>
</clipPath>
</defs>
</svg>
